<svg width="24" height="24" viewBox="0 0 24 24" fill="none" xmlns="http://www.w3.org/2000/svg">
<path fill-rule="evenodd" clip-rule="evenodd" d="M12 24C18.6274 24 24 18.6274 24 12C24 5.37258 18.6274 0 12 0C5.37258 0 0 5.37258 0 12C0 18.6274 5.37258 24 12 24ZM18.0001 10.097C18.4687 9.6284 18.4687 8.86864 18.0001 8.4C17.5315 7.93135 16.7717 7.93135 16.303 8.4L10.0194 14.6837L7.2627 11.4676C6.83138 10.9644 6.07382 10.9061 5.57063 11.3374C5.06744 11.7687 5.00917 12.5262 5.44048 13.0294L9.04048 17.2294C9.258 17.4833 9.57152 17.6348 9.90552 17.6476C10.2395 17.6605 10.5638 17.5334 10.8001 17.297L18.0001 10.097Z" fill="#1C48E5"/>
</svg>
