<svg width="22" height="22" viewBox="0 0 22 22" fill="none" xmlns="http://www.w3.org/2000/svg">
<path fill-rule="evenodd" clip-rule="evenodd" d="M20.4318 7.72504C21.4082 6.74867 21.4081 5.16562 20.4316 4.18934L18.3041 2.06219C17.3272 1.08552 15.7434 1.08619 14.7674 2.06369L8.5 8.34055V2.5C8.5 1.11929 7.38071 0 6 0H3C1.61929 0 0.5 1.11929 0.5 2.5V18C0.5 20.2091 2.29086 22 4.5 22H19C20.3807 22 21.5 20.8807 21.5 19.5V16.5C21.5 15.1193 20.3807 14 19 14H14.1569L20.4318 7.72504ZM8.5 11.1711V16.8284L18.655 6.67344C19.043 6.28547 19.0459 5.65735 18.6615 5.2658L17.2601 3.83827C16.8707 3.44157 16.2325 3.43861 15.8394 3.8317L8.5 11.1711ZM18.5 20H8.15685L12.1569 16H18.5C19.0523 16 19.5 16.4477 19.5 17V19C19.5 19.5523 19.0523 20 18.5 20ZM4.49991 18.5C5.32833 18.5 5.99991 17.8284 5.99991 17C5.99991 16.1715 5.32833 15.5 4.49991 15.5C3.67148 15.5 2.99991 16.1715 2.99991 17C2.99991 17.8284 3.67148 18.5 4.49991 18.5Z" fill="#1C48E5"/>
</svg>
