<svg width="16" height="15" viewBox="0 0 16 15" fill="none" xmlns="http://www.w3.org/2000/svg">
<path fill-rule="evenodd" clip-rule="evenodd" d="M3.02866 7.05475L7.98438 11.7971L12.9401 7.05475C13.4256 6.59034 13.7143 5.9243 13.7143 5.24395V5.08381C13.7143 3.98742 12.9313 3.0514 11.8902 2.88128L11.87 2.87799L11.8499 2.87433C11.1829 2.7528 10.4659 2.98696 9.99124 3.47345L8 5.51426L6.02325 3.4883C5.50096 2.97557 4.79928 2.75306 4.11039 2.87585L4.09451 2.87868L4.0786 2.88128C3.06026 3.04767 2.28571 3.96348 2.28571 5.08381V5.24395C2.28571 5.96262 2.57037 6.61636 3.02866 7.05475ZM8.375 1.81697L8 2.20131L7.625 1.81697C6.59375 0.792082 5.15625 0.311665 3.71875 0.567888C1.5625 0.920194 0 2.84186 0 5.08381V5.24395C0 6.58912 0.53125 7.87024 1.46875 8.76702L7.125 14.1797C7.34375 14.4039 7.65625 14.5 8 14.5C8.3125 14.5 8.625 14.4039 8.84375 14.1797L14.5 8.76702C15.4375 7.87024 16 6.58912 16 5.24395V5.08381C16 2.84186 14.4063 0.920194 12.25 0.567888C10.8438 0.311665 9.375 0.792082 8.375 1.81697Z" fill="#1C48E5"/>
</svg>
