<svg width="20" height="19" viewBox="0 0 20 19" fill="none" xmlns="http://www.w3.org/2000/svg">
<path fill-rule="evenodd" clip-rule="evenodd" d="M6.3175 15.6343L8.65576 14.3235C9.49107 13.8553 10.5098 13.8553 11.3452 14.3235L13.6834 15.6343L13.1555 12.9733C12.9787 12.0821 13.2535 11.161 13.8898 10.5124L15.7518 8.61439L13.2753 8.29889C12.3345 8.17904 11.5219 7.5829 11.1251 6.72152L10.0004 4.2801L8.87581 6.72152C8.47901 7.5829 7.66638 8.17904 6.7256 8.29889L4.24906 8.61439L6.11102 10.5124C6.74733 11.161 7.02217 12.0821 6.84537 12.9733L6.3175 15.6343ZM4.93057 18.7045C4.37221 19.0175 3.70362 18.5322 3.82818 17.9043L4.8836 12.5841C4.93182 12.3411 4.85686 12.0899 4.68332 11.913L1.7586 8.93166L1.05828 8.21779C0.624114 7.77523 0.883887 7.02693 1.49889 6.94858L2.49087 6.82221L6.47285 6.31493C6.72943 6.28224 6.95105 6.11966 7.05928 5.88473L9.31924 0.978686C9.58716 0.397079 10.4137 0.397078 10.6817 0.978686L12.9416 5.88473C13.0498 6.11966 13.2715 6.28224 13.5281 6.31493L17.51 6.82221L18.502 6.94858C19.117 7.02693 19.3767 7.77523 18.9426 8.21779L18.2423 8.93165L15.3176 11.913C15.1441 12.0899 15.0691 12.3411 15.1173 12.5841L16.1727 17.9043C16.2972 18.5322 15.6286 19.0175 15.0703 18.7045L10.3672 16.0681C10.1394 15.9404 9.86152 15.9404 9.63371 16.0681L4.93057 18.7045Z" fill="#1C48E5"/>
</svg>
