<svg width="18" height="16" viewBox="0 0 18 16" fill="none" xmlns="http://www.w3.org/2000/svg">
<path d="M10.9199 0.679495C12.1828 1.03568 12.8951 2.33091 12.539 3.56138L12.3447 4.209C12.2475 4.56519 12.118 4.92137 11.9561 5.24518H14.9675C16.1008 5.24518 17.0399 6.18422 17.0399 7.31755C17.0399 7.9004 16.7808 8.4185 16.4247 8.80707C16.4894 9.00135 16.5218 9.19563 16.5218 9.4223C16.5218 10.0699 16.198 10.6852 15.6799 11.0737C15.7123 11.2032 15.7447 11.3328 15.7447 11.4947C15.7447 12.1423 15.4208 12.7251 14.9675 13.1137C14.9028 14.2147 13.9961 15.1213 12.8951 15.1213H9.72184C9.00946 15.1213 8.29708 14.8946 7.71423 14.5061L5.70662 13.1785C5.35043 12.9194 5.25329 12.4661 5.51234 12.0775C5.739 11.7213 6.22471 11.6242 6.5809 11.8832L8.58851 13.2108C8.91232 13.4375 9.30089 13.567 9.72184 13.567H12.8951C13.1542 13.567 13.4132 13.308 13.4132 13.0489C13.4132 12.9842 13.3809 12.9518 13.3809 12.887C13.2837 12.4985 13.478 12.1099 13.8342 11.948C14.0285 11.8832 14.1904 11.689 14.1904 11.4947C14.1904 11.3651 14.1256 11.2356 14.0609 11.1709C13.899 10.9442 13.8666 10.6528 13.9637 10.3937C14.0285 10.1347 14.2551 9.97277 14.5466 9.90801C14.7732 9.87563 14.9675 9.64897 14.9675 9.38992C14.9675 9.2604 14.9028 9.16325 14.838 9.06611C14.6437 8.87183 14.5789 8.61278 14.6437 8.35373C14.7085 8.09469 14.9028 7.9004 15.1294 7.80326C15.3237 7.7385 15.4856 7.54422 15.4856 7.31755C15.4856 7.0585 15.2266 6.79946 14.9675 6.79946H10.6285C10.3371 6.79946 10.078 6.63755 9.9485 6.37851C9.81898 6.11946 9.81898 5.82804 9.98088 5.60137C10.3694 5.0509 10.6609 4.43566 10.8552 3.78805L11.0494 3.14043C11.1466 2.71948 10.9199 2.29853 10.499 2.16901C10.078 2.07187 9.65707 2.29853 9.52755 2.71948L9.36565 3.3671C9.17136 4.01471 8.84755 4.59757 8.39422 5.11566L6.71042 6.92898C6.419 7.25279 5.93329 7.28517 5.60948 6.99374C5.31805 6.70232 5.28567 6.21661 5.5771 5.8928L7.22852 4.07947C7.51994 3.75567 7.74661 3.3671 7.87613 2.94615L8.03804 2.29853C8.39422 1.03568 9.68945 0.323306 10.9199 0.679495ZM1.49712 5.76327H3.56949C4.11996 5.76327 4.60567 6.24899 4.60567 6.79946V14.0527C4.60567 14.6356 4.11996 15.0889 3.56949 15.0889H1.49712C0.914268 15.0889 0.460938 14.6356 0.460938 14.0527V6.79946C0.460938 6.24899 0.914268 5.76327 1.49712 5.76327Z" fill="#1C48E5"/>
</svg>
