<svg width="18" height="18" viewBox="0 0 18 18" fill="none" xmlns="http://www.w3.org/2000/svg">
<path d="M10.6875 0.84375C10.6875 0.386719 11.0391 0 11.5312 0H17.1211C17.6133 0 17.9648 0.386719 17.9648 0.84375V6.46875C17.9648 6.96094 17.6133 7.3125 17.1211 7.3125C16.6641 7.3125 16.2773 6.96094 16.2773 6.46875V2.88281L8.4375 10.7227C8.12109 11.0742 7.59375 11.0742 7.27734 10.7227C6.92578 10.4062 6.92578 9.87891 7.27734 9.52734L15.1172 1.6875H11.5312C11.0391 1.6875 10.6875 1.33594 10.6875 0.84375ZM2.53125 1.125H7.03125C7.48828 1.125 7.875 1.51172 7.875 1.96875C7.875 2.46094 7.48828 2.8125 7.03125 2.8125H2.53125C2.03906 2.8125 1.6875 3.19922 1.6875 3.65625V15.4688C1.6875 15.9609 2.03906 16.3125 2.53125 16.3125H14.3438C14.8008 16.3125 15.1875 15.9609 15.1875 15.4688V10.9688C15.1875 10.5117 15.5391 10.125 16.0312 10.125C16.4883 10.125 16.875 10.5117 16.875 10.9688V15.4688C16.875 16.875 15.7148 18 14.3438 18H2.53125C1.125 18 0 16.875 0 15.4688V3.65625C0 2.28516 1.125 1.125 2.53125 1.125Z" fill="#151515"/>
</svg>
