<svg width="92" height="14" viewBox="0 0 92 14" fill="none" xmlns="http://www.w3.org/2000/svg">
<path d="M0.371423 10.4861C0.371423 11.9673 1.57685 13.1729 3.05869 13.1729C4.54028 13.1729 5.74561 11.9673 5.74561 10.4861C5.74561 9.00411 4.5403 7.79867 3.05869 7.79867C1.57683 7.79867 0.371423 9.00409 0.371423 10.4861ZM1.57259 10.4861C1.57259 9.66655 2.2393 8.99958 3.05869 8.99958C3.87781 8.99958 4.54453 9.66654 4.54453 10.4861C4.54453 11.3049 3.87788 11.9716 3.05869 11.9716C2.23923 11.9716 1.57259 11.3049 1.57259 10.4861Z" fill="#4A4A4A" stroke="#4A4A4A" stroke-width="0.257154"/>
<path d="M10.2569 12.5674C10.144 12.5674 10.0293 12.5597 9.91641 12.5442C8.84879 12.3999 7.99066 11.5556 7.82926 10.4912C7.77028 10.1013 7.80123 9.71725 7.92132 9.35021C8.14153 8.67835 8.07184 7.9074 7.73008 7.23468C7.37126 6.52854 6.80038 6.0102 6.12295 5.7755C6.04435 5.74824 5.96506 5.7161 5.88671 5.67976C4.9763 5.25451 4.39796 4.36184 4.41339 3.40557C4.43482 2.07308 5.53638 0.989258 6.86921 0.989258C6.98202 0.989258 7.09679 0.997144 7.20994 1.0124C8.27756 1.15675 9.13577 2.00099 9.29675 3.06595C9.35598 3.45503 9.32512 3.83896 9.2046 4.20695C8.98465 4.87863 9.05443 5.64975 9.39618 6.3223C9.75491 7.02845 10.3258 7.54661 11.0032 7.78165C11.0814 7.80857 11.1613 7.84063 11.2396 7.87723C12.1504 8.30316 12.7285 9.19583 12.7127 10.1521C12.6913 11.4841 11.5895 12.5674 10.2569 12.5674ZM6.8693 1.72858C5.9378 1.72858 5.16754 2.48633 5.15271 3.41731C5.14191 4.08265 5.55292 4.7078 6.1995 5.00961C6.25461 5.03541 6.31042 5.05796 6.36528 5.0769C7.22451 5.3746 7.94326 6.0216 8.38925 6.89944C8.81939 7.74659 8.9051 8.72344 8.62412 9.58027C8.54037 9.83657 8.51877 10.106 8.56035 10.3807C8.67118 11.1109 9.28304 11.7127 10.0154 11.8116C10.0958 11.8221 10.177 11.8278 10.2569 11.8278C11.1885 11.8278 11.9586 11.0707 11.9736 10.1398C11.9844 9.47476 11.5736 8.84927 10.9269 8.54694C10.8721 8.52166 10.8168 8.4992 10.7623 8.48034C9.90183 8.1823 9.183 7.53495 8.73701 6.65703C8.30713 5.81073 8.22133 4.83397 8.50197 3.97679C8.58598 3.72015 8.6074 3.45057 8.56575 3.17636C8.45534 2.44595 7.84348 1.84387 7.11094 1.74495C7.03036 1.73415 6.9491 1.72858 6.8693 1.72858Z" fill="#4A4A4A"/>
<path d="M17.0284 12.5674C16.9155 12.5674 16.8008 12.5597 16.6879 12.5442C15.6203 12.3999 14.7621 11.5556 14.6007 10.4912C14.5418 10.1013 14.5727 9.71725 14.6928 9.35021C14.913 8.67835 14.8433 7.9074 14.5016 7.23468C14.1427 6.52854 13.5719 6.0102 12.8944 5.7755C12.8158 5.74824 12.7365 5.7161 12.6582 5.67976C11.7478 5.25451 11.1694 4.36184 11.1849 3.40557C11.2063 2.07308 12.3079 0.989258 13.6407 0.989258C13.7535 0.989258 13.8683 0.997144 13.9814 1.0124C15.049 1.15675 15.9073 2.00099 16.0682 3.06595C16.1275 3.45503 16.0966 3.83896 15.9761 4.20695C15.7561 4.87863 15.8259 5.64975 16.1677 6.3223C16.5264 7.02845 17.0973 7.54661 17.7747 7.78165C17.8529 7.80857 17.9328 7.84063 18.0111 7.87723C18.9219 8.30316 19.5 9.19583 19.4842 10.1521C19.4628 11.4841 18.361 12.5674 17.0284 12.5674ZM13.6408 1.72858C12.7093 1.72858 11.939 2.48633 11.9242 3.41731C11.9134 4.08265 12.3244 4.7078 12.971 5.00961C13.0261 5.03541 13.0819 5.05796 13.1368 5.0769C13.996 5.3746 14.7147 6.0216 15.1607 6.89944C15.5909 7.74659 15.6766 8.72344 15.3956 9.58027C15.3119 9.83657 15.2903 10.106 15.3318 10.3807C15.4427 11.1109 16.0545 11.7127 16.7869 11.8116C16.8673 11.8221 16.9485 11.8278 17.0284 11.8278C17.9599 11.8278 18.7301 11.0707 18.745 10.1398C18.7559 9.47476 18.3451 8.84927 17.6983 8.54694C17.6436 8.52166 17.5883 8.4992 17.5338 8.48034C16.6733 8.1823 15.9545 7.53495 15.5085 6.65703C15.0786 5.81073 14.9928 4.83397 15.2735 3.97679C15.3575 3.72015 15.3789 3.45057 15.3372 3.17636C15.2268 2.44595 14.615 1.84387 13.8824 1.74495C13.8018 1.73415 13.7206 1.72858 13.6408 1.72858Z" fill="#4A4A4A"/>
<mask id="path-4-outside-1_2265_4421" maskUnits="userSpaceOnUse" x="3.15625" y="-0.268066" width="11" height="14" fill="black">
<rect fill="white" x="3.15625" y="-0.268066" width="11" height="14"/>
<path fill-rule="evenodd" clip-rule="evenodd" d="M7.82958 10.491C7.7706 10.1011 7.80155 9.71708 7.92164 9.35004C8.14185 8.67818 8.07216 7.90723 7.7304 7.23451C7.37158 6.52837 6.8007 6.01003 6.12327 5.77533C6.04467 5.74808 5.96538 5.71593 5.88703 5.67959C4.97662 5.25434 4.39828 4.36167 4.41371 3.4054C4.43514 2.07291 5.5367 0.989088 6.86953 0.989088C6.98234 0.989088 7.09711 0.996974 7.21026 1.01223C8.27788 1.15658 9.13609 2.00082 9.29707 3.06578C9.3563 3.45486 9.32544 3.83879 9.20492 4.20678C8.98497 4.87846 9.05474 5.64958 9.3965 6.32213C9.75523 7.02828 10.3261 7.54644 11.0035 7.78148C11.0817 7.8084 11.1616 7.84046 11.24 7.87706C12.1507 8.30299 12.7288 9.19566 12.713 10.1519C12.6916 11.4839 11.5899 12.5672 10.2572 12.5672C10.1443 12.5672 10.0296 12.5595 9.91673 12.5441C8.84911 12.3997 7.99098 11.5555 7.82958 10.491ZM9.8819 12.7989C8.70137 12.6391 7.75385 11.7069 7.57533 10.5296L7.57531 10.5295C7.51047 10.1008 7.54437 9.67614 7.67723 9.27007L7.67727 9.26995C7.87467 8.6677 7.81425 7.96734 7.50114 7.35101C7.16904 6.69742 6.64676 6.22885 6.03909 6.01832C5.95201 5.98812 5.86466 5.95269 5.77881 5.91286L5.7782 5.91258C4.78194 5.44723 4.13942 4.46535 4.15659 3.40125C4.18027 1.92835 5.39633 0.731934 6.86953 0.731934C6.99417 0.731934 7.12043 0.740636 7.24463 0.757384L7.24472 0.757396C8.42536 0.917027 9.37316 1.84922 9.55131 3.02716C9.61646 3.45523 9.58259 3.87984 9.44931 4.2868C9.25214 4.8889 9.31264 5.58946 9.62576 6.20563C9.9577 6.85904 10.4799 7.32749 11.0875 7.53843C11.1739 7.56818 11.2621 7.60357 11.3488 7.64407L11.3489 7.64412C12.3454 8.11015 12.9877 9.092 12.9701 10.1562C12.9464 11.6286 11.7301 12.8244 10.2572 12.8244C10.1328 12.8244 10.0065 12.8159 9.88209 12.7989"/>
</mask>
<path fill-rule="evenodd" clip-rule="evenodd" d="M7.82958 10.491C7.7706 10.1011 7.80155 9.71708 7.92164 9.35004C8.14185 8.67818 8.07216 7.90723 7.7304 7.23451C7.37158 6.52837 6.8007 6.01003 6.12327 5.77533C6.04467 5.74808 5.96538 5.71593 5.88703 5.67959C4.97662 5.25434 4.39828 4.36167 4.41371 3.4054C4.43514 2.07291 5.5367 0.989088 6.86953 0.989088C6.98234 0.989088 7.09711 0.996974 7.21026 1.01223C8.27788 1.15658 9.13609 2.00082 9.29707 3.06578C9.3563 3.45486 9.32544 3.83879 9.20492 4.20678C8.98497 4.87846 9.05474 5.64958 9.3965 6.32213C9.75523 7.02828 10.3261 7.54644 11.0035 7.78148C11.0817 7.8084 11.1616 7.84046 11.24 7.87706C12.1507 8.30299 12.7288 9.19566 12.713 10.1519C12.6916 11.4839 11.5899 12.5672 10.2572 12.5672C10.1443 12.5672 10.0296 12.5595 9.91673 12.5441C8.84911 12.3997 7.99098 11.5555 7.82958 10.491ZM9.8819 12.7989C8.70137 12.6391 7.75385 11.7069 7.57533 10.5296L7.57531 10.5295C7.51047 10.1008 7.54437 9.67614 7.67723 9.27007L7.67727 9.26995C7.87467 8.6677 7.81425 7.96734 7.50114 7.35101C7.16904 6.69742 6.64676 6.22885 6.03909 6.01832C5.95201 5.98812 5.86466 5.95269 5.77881 5.91286L5.7782 5.91258C4.78194 5.44723 4.13942 4.46535 4.15659 3.40125C4.18027 1.92835 5.39633 0.731934 6.86953 0.731934C6.99417 0.731934 7.12043 0.740636 7.24463 0.757384L7.24472 0.757396C8.42536 0.917027 9.37316 1.84922 9.55131 3.02716C9.61646 3.45523 9.58259 3.87984 9.44931 4.2868C9.25214 4.8889 9.31264 5.58946 9.62576 6.20563C9.9577 6.85904 10.4799 7.32749 11.0875 7.53843C11.1739 7.56818 11.2621 7.60357 11.3488 7.64407L11.3489 7.64412C12.3454 8.11015 12.9877 9.092 12.9701 10.1562C12.9464 11.6286 11.7301 12.8244 10.2572 12.8244C10.1328 12.8244 10.0065 12.8159 9.88209 12.7989" fill="#4A4A4A"/>
<path d="M9.91045 12.5892L9.91026 12.5891L9.85354 13.0086L9.85373 13.0086L9.91045 12.5892ZM7.82958 10.491L7.41108 10.5543L7.4111 10.5545L7.82958 10.491ZM7.92164 9.35004L7.51943 9.21821L7.51937 9.21842L7.92164 9.35004ZM7.7304 7.23451L8.10775 7.04281L8.10774 7.04278L7.7304 7.23451ZM6.12327 5.77533L5.98459 6.17523L5.98471 6.17527L6.12327 5.77533ZM5.88703 5.67959L5.70791 6.06307L5.70892 6.06354L5.88703 5.67959ZM4.41371 3.4054L4.83691 3.41223L4.83691 3.4122L4.41371 3.4054ZM7.21026 1.01223L7.26697 0.592793L7.26682 0.592773L7.21026 1.01223ZM9.29707 3.06578L8.87857 3.12904L8.87863 3.12948L9.29707 3.06578ZM9.20492 4.20678L8.80269 4.07504L8.80268 4.07506L9.20492 4.20678ZM9.3965 6.32213L9.77386 6.13043L9.77384 6.13039L9.3965 6.32213ZM11.0035 7.78148L10.8648 8.18135L10.8658 8.18168L11.0035 7.78148ZM11.24 7.87706L11.4193 7.49366L11.4191 7.49359L11.24 7.87706ZM12.713 10.1519L12.2898 10.145L12.2898 10.1451L12.713 10.1519ZM9.91673 12.5441L9.97404 12.1247L9.97344 12.1246L9.91673 12.5441ZM7.57533 10.5296L7.15682 10.5928L7.15685 10.593L7.57533 10.5296ZM7.57531 10.5295L7.99382 10.4663L7.99381 10.4662L7.57531 10.5295ZM7.67723 9.27007L8.07951 9.40169L8.07988 9.40052L7.67723 9.27007ZM7.67727 9.26995L7.27507 9.13812L7.27462 9.13949L7.67727 9.26995ZM7.50114 7.35101L7.8785 7.1593L7.87848 7.15927L7.50114 7.35101ZM6.03909 6.01832L5.90041 6.41821L5.90053 6.41825L6.03909 6.01832ZM5.77881 5.91286L5.95693 5.52891L5.95692 5.5289L5.77881 5.91286ZM5.7782 5.91258L5.59908 6.29606L5.60009 6.29653L5.7782 5.91258ZM4.15659 3.40125L4.57979 3.40808L4.57979 3.40805L4.15659 3.40125ZM7.24463 0.757384L7.18806 1.17684L7.18808 1.17685L7.24463 0.757384ZM7.24472 0.757396L7.30143 0.337957L7.30126 0.337935L7.24472 0.757396ZM9.55131 3.02716L9.13281 3.09045L9.13287 3.09085L9.55131 3.02716ZM9.44931 4.2868L9.04707 4.15507L9.04707 4.15509L9.44931 4.2868ZM9.62576 6.20563L10.0031 6.01393L10.0031 6.01389L9.62576 6.20563ZM11.0875 7.53843L10.9487 7.93828L10.9497 7.93861L11.0875 7.53843ZM11.3488 7.64407L11.1697 8.02755L11.1703 8.02782L11.3488 7.64407ZM11.3489 7.64412L11.5282 7.26072L11.5274 7.26037L11.3489 7.64412ZM12.9701 10.1562L12.5469 10.1492L12.5469 10.1493L12.9701 10.1562ZM8.24807 10.4277C8.19876 10.1017 8.22483 9.78448 8.32391 9.48166L7.51937 9.21842C7.37826 9.64969 7.34245 10.1005 7.41108 10.5543L8.24807 10.4277ZM8.32384 9.48186C8.5816 8.69544 8.49665 7.80832 8.10775 7.04281L7.35305 7.42622C7.64766 8.00614 7.70209 8.66092 7.51943 9.21821L8.32384 9.48186ZM8.10774 7.04278C7.70496 6.25011 7.05407 5.64987 6.26183 5.3754L5.98471 6.17527C6.54733 6.37019 7.03821 6.80662 7.35306 7.42625L8.10774 7.04278ZM6.26195 5.37544C6.19728 5.35302 6.13114 5.32625 6.06514 5.29563L5.70892 6.06354C5.79961 6.10561 5.89205 6.14313 5.98459 6.17523L6.26195 5.37544ZM6.06615 5.2961C5.29704 4.93685 4.82434 4.19102 4.83691 3.41223L3.99051 3.39857C3.97221 4.53232 4.65619 5.57182 5.70791 6.06307L6.06615 5.2961ZM4.83691 3.4122C4.85462 2.31085 5.76775 1.41234 6.86953 1.41234V0.565832C5.30565 0.565832 4.01565 1.83497 3.99051 3.39859L4.83691 3.4122ZM6.86953 1.41234C6.96286 1.41234 7.05873 1.41889 7.1537 1.43169L7.26682 0.592773C7.13549 0.575063 7.00182 0.565832 6.86953 0.565832V1.41234ZM7.15355 1.43167C8.03504 1.55085 8.74572 2.25017 8.87857 3.12904L9.71557 3.00252C9.52646 1.75147 8.52073 0.762309 7.26697 0.592793L7.15355 1.43167ZM8.87863 3.12948C8.92809 3.45432 8.90218 3.77125 8.80269 4.07504L9.60716 4.33851C9.7487 3.90632 9.78451 3.45539 9.7155 3.00208L8.87863 3.12948ZM8.80268 4.07506C8.54523 4.86128 8.63026 5.74854 9.01917 6.51387L9.77384 6.13039C9.47923 5.55063 9.42471 4.89565 9.60716 4.33849L8.80268 4.07506ZM9.01915 6.51383C9.42188 7.3066 10.0728 7.90655 10.8648 8.18135L11.1423 7.38161C10.5795 7.18633 10.0886 6.74996 9.77386 6.13043L9.01915 6.51383ZM10.8658 8.18168C10.9303 8.2039 10.9963 8.23041 11.0608 8.26053L11.4191 7.49359C11.3269 7.4505 11.2332 7.4129 11.1413 7.38128L10.8658 8.18168ZM11.0607 8.26046C11.8303 8.62039 12.3027 9.36628 12.2898 10.145L13.1362 10.1589C13.1549 9.02504 12.4711 7.98559 11.4193 7.49366L11.0607 8.26046ZM12.2898 10.1451C12.2721 11.2458 11.359 12.144 10.2572 12.144V12.9905C11.8207 12.9905 13.1111 11.722 13.1362 10.1587L12.2898 10.1451ZM10.2572 12.144C10.1634 12.144 10.0678 12.1375 9.97404 12.1247L9.85941 12.9634C9.99142 12.9815 10.1253 12.9905 10.2572 12.9905V12.144ZM9.97344 12.1246C9.09195 12.0054 8.38126 11.3061 8.24805 10.4276L7.4111 10.5545C7.6007 11.8049 8.60627 12.794 9.86002 12.9635L9.97344 12.1246ZM7.15685 10.593C7.36357 11.9563 8.4585 13.0333 9.82513 13.2183L9.93867 12.3794C8.94424 12.2448 8.14413 11.4575 7.9938 10.4661L7.15685 10.593ZM7.1568 10.5927L7.15682 10.5928L7.99384 10.4664L7.99382 10.4663L7.1568 10.5927ZM7.27496 9.13846C7.12109 9.60874 7.08231 10.1002 7.15682 10.5928L7.99381 10.4662C7.93862 10.1013 7.96766 9.74353 8.0795 9.40169L7.27496 9.13846ZM7.27462 9.13949L7.27458 9.13962L8.07988 9.40052L8.07992 9.4004L7.27462 9.13949ZM7.12379 7.54271C7.38974 8.0662 7.43493 8.65039 7.27507 9.13812L8.07948 9.40177C8.3144 8.68501 8.23877 7.86848 7.8785 7.1593L7.12379 7.54271ZM5.90053 6.41825C6.39345 6.58903 6.8357 6.97574 7.12381 7.54274L7.87848 7.15927C7.50238 6.41911 6.90007 5.86867 6.17765 5.61838L5.90053 6.41825ZM5.6007 6.29682C5.69891 6.34237 5.79941 6.38319 5.90041 6.41821L6.17776 5.61843C6.10462 5.59306 6.03042 5.563 5.95693 5.52891L5.6007 6.29682ZM5.60009 6.29653L5.60071 6.29682L5.95692 5.5289L5.95631 5.52862L5.60009 6.29653ZM3.73339 3.39442C3.71335 4.63614 4.46165 5.76477 5.59908 6.29606L5.95732 5.52909C5.10223 5.12968 4.56548 4.29456 4.57979 3.40808L3.73339 3.39442ZM6.86953 0.308678C5.16528 0.308678 3.76079 1.69041 3.73338 3.39444L4.57979 3.40805C4.59976 2.16629 5.62737 1.15519 6.86953 1.15519V0.308678ZM7.30119 0.337925C7.15881 0.318725 7.01365 0.308678 6.86953 0.308678V1.15519C6.97469 1.15519 7.08205 1.16255 7.18806 1.17684L7.30119 0.337925ZM7.30126 0.337935L7.30117 0.337923L7.18808 1.17685L7.18817 1.17686L7.30126 0.337935ZM9.9698 2.96387C9.76352 1.59985 8.66819 0.522753 7.30143 0.337957L7.18801 1.17684C8.18253 1.3113 8.98281 2.09859 9.13281 3.09045L9.9698 2.96387ZM9.85154 4.41854C10.0059 3.94738 10.0447 3.45577 9.96974 2.96347L9.13287 3.09085C9.18825 3.45469 9.15933 3.8123 9.04707 4.15507L9.85154 4.41854ZM10.0031 6.01389C9.73715 5.49055 9.69187 4.90614 9.85155 4.41852L9.04707 4.15509C8.81241 4.87167 8.88814 5.68837 9.24842 6.39738L10.0031 6.01389ZM11.2263 7.13857C10.7332 6.96739 10.291 6.58068 10.0031 6.01393L9.2484 6.39733C9.62437 7.1374 10.2265 7.68759 10.9487 7.93828L11.2263 7.13857ZM11.528 7.2606C11.4274 7.21363 11.3254 7.17269 11.2254 7.13824L10.9497 7.93861C11.0224 7.96367 11.0968 7.99352 11.1697 8.02755L11.528 7.2606ZM11.5274 7.26037L11.5274 7.26032L11.1703 8.02782L11.1703 8.02787L11.5274 7.26037ZM13.3933 10.1632C13.4138 8.92124 12.6657 7.79269 11.5282 7.26072L11.1696 8.02752C12.0251 8.42761 12.5616 9.26276 12.5469 10.1492L13.3933 10.1632ZM10.2572 13.2476C11.9609 13.2476 13.3659 11.8668 13.3933 10.163L12.5469 10.1493C12.5269 11.3905 11.4992 12.4011 10.2572 12.4011V13.2476ZM9.8248 13.2182C9.96836 13.2378 10.1138 13.2476 10.2572 13.2476V12.4011C10.1518 12.4011 10.0447 12.3939 9.93937 12.3795L9.8248 13.2182Z" fill="#4A4A4A" mask="url(#path-4-outside-1_2265_4421)"/>
<mask id="path-6-outside-2_2265_4421" maskUnits="userSpaceOnUse" x="9.92773" y="-0.268066" width="11" height="14" fill="black">
<rect fill="white" x="9.92773" y="-0.268066" width="11" height="14"/>
<path fill-rule="evenodd" clip-rule="evenodd" d="M14.6011 10.491C14.5421 10.1011 14.573 9.71708 14.6931 9.35004C14.9133 8.67818 14.8436 7.90723 14.5019 7.23451C14.1431 6.52837 13.5722 6.01003 12.8948 5.77533C12.8162 5.74808 12.7369 5.71593 12.6585 5.67959C11.7481 5.25434 11.1698 4.36167 11.1852 3.4054C11.2066 2.07291 12.3082 0.989088 13.641 0.989088C13.7538 0.989088 13.8686 0.996974 13.9817 1.01223C15.0494 1.15658 15.9076 2.00082 16.0686 3.06578C16.1278 3.45486 16.0969 3.83879 15.9764 4.20678C15.7565 4.87846 15.8262 5.64958 16.168 6.32213C16.5267 7.02828 17.0976 7.54644 17.775 7.78148C17.8532 7.8084 17.9331 7.84046 18.0114 7.87706C18.9222 8.30299 19.5003 9.19566 19.4845 10.1519C19.4631 11.4839 18.3613 12.5672 17.0287 12.5672C16.9158 12.5672 16.8011 12.5595 16.6882 12.5441C15.6206 12.3997 14.7625 11.5555 14.6011 10.491ZM16.6534 12.7989C15.4729 12.6391 14.5253 11.7069 14.3468 10.5296L14.3468 10.5295C14.282 10.1008 14.3159 9.67614 14.4487 9.27007L14.4488 9.26995C14.6462 8.6677 14.5857 7.96734 14.2726 7.35101C13.9405 6.69742 13.4182 6.22885 12.8106 6.01832C12.7235 5.98812 12.6361 5.95269 12.5503 5.91286L12.5497 5.91258C11.5534 5.44723 10.9109 4.46535 10.9281 3.40125C10.9518 1.92835 12.1678 0.731934 13.641 0.731934C13.7657 0.731934 13.8919 0.740636 14.0161 0.757384L14.0162 0.757396C15.1968 0.917027 16.1446 1.84922 16.3228 3.02716C16.3879 3.45523 16.3541 3.87984 16.2208 4.2868C16.0236 4.8889 16.0841 5.58946 16.3972 6.20563C16.7292 6.85904 17.2513 7.32749 17.859 7.53843C17.9454 7.56818 18.0336 7.60357 18.1203 7.64407L18.1204 7.64412C19.1169 8.11015 19.7592 9.092 19.7416 10.1562C19.7179 11.6286 18.5016 12.8244 17.0287 12.8244C16.9043 12.8244 16.778 12.8159 16.6536 12.7989"/>
</mask>
<path fill-rule="evenodd" clip-rule="evenodd" d="M14.6011 10.491C14.5421 10.1011 14.573 9.71708 14.6931 9.35004C14.9133 8.67818 14.8436 7.90723 14.5019 7.23451C14.1431 6.52837 13.5722 6.01003 12.8948 5.77533C12.8162 5.74808 12.7369 5.71593 12.6585 5.67959C11.7481 5.25434 11.1698 4.36167 11.1852 3.4054C11.2066 2.07291 12.3082 0.989088 13.641 0.989088C13.7538 0.989088 13.8686 0.996974 13.9817 1.01223C15.0494 1.15658 15.9076 2.00082 16.0686 3.06578C16.1278 3.45486 16.0969 3.83879 15.9764 4.20678C15.7565 4.87846 15.8262 5.64958 16.168 6.32213C16.5267 7.02828 17.0976 7.54644 17.775 7.78148C17.8532 7.8084 17.9331 7.84046 18.0114 7.87706C18.9222 8.30299 19.5003 9.19566 19.4845 10.1519C19.4631 11.4839 18.3613 12.5672 17.0287 12.5672C16.9158 12.5672 16.8011 12.5595 16.6882 12.5441C15.6206 12.3997 14.7625 11.5555 14.6011 10.491ZM16.6534 12.7989C15.4729 12.6391 14.5253 11.7069 14.3468 10.5296L14.3468 10.5295C14.282 10.1008 14.3159 9.67614 14.4487 9.27007L14.4488 9.26995C14.6462 8.6677 14.5857 7.96734 14.2726 7.35101C13.9405 6.69742 13.4182 6.22885 12.8106 6.01832C12.7235 5.98812 12.6361 5.95269 12.5503 5.91286L12.5497 5.91258C11.5534 5.44723 10.9109 4.46535 10.9281 3.40125C10.9518 1.92835 12.1678 0.731934 13.641 0.731934C13.7657 0.731934 13.8919 0.740636 14.0161 0.757384L14.0162 0.757396C15.1968 0.917027 16.1446 1.84922 16.3228 3.02716C16.3879 3.45523 16.3541 3.87984 16.2208 4.2868C16.0236 4.8889 16.0841 5.58946 16.3972 6.20563C16.7292 6.85904 17.2513 7.32749 17.859 7.53843C17.9454 7.56818 18.0336 7.60357 18.1203 7.64407L18.1204 7.64412C19.1169 8.11015 19.7592 9.092 19.7416 10.1562C19.7179 11.6286 18.5016 12.8244 17.0287 12.8244C16.9043 12.8244 16.778 12.8159 16.6536 12.7989" fill="#4A4A4A"/>
<path d="M16.6819 12.5892L16.6817 12.5891L16.625 13.0086L16.6252 13.0086L16.6819 12.5892ZM14.6011 10.491L14.1826 10.5543L14.1826 10.5545L14.6011 10.491ZM14.6931 9.35004L14.2909 9.21821L14.2908 9.21842L14.6931 9.35004ZM14.5019 7.23451L14.8792 7.04281L14.8792 7.04278L14.5019 7.23451ZM12.8948 5.77533L12.7561 6.17523L12.7562 6.17527L12.8948 5.77533ZM12.6585 5.67959L12.4794 6.06307L12.4804 6.06354L12.6585 5.67959ZM11.1852 3.4054L11.6084 3.41223L11.6084 3.4122L11.1852 3.4054ZM13.9817 1.01223L14.0385 0.592793L14.0383 0.592773L13.9817 1.01223ZM16.0686 3.06578L15.6501 3.12904L15.6501 3.12948L16.0686 3.06578ZM15.9764 4.20678L15.5742 4.07504L15.5742 4.07506L15.9764 4.20678ZM16.168 6.32213L16.5453 6.13043L16.5453 6.13039L16.168 6.32213ZM17.775 7.78148L17.6363 8.18135L17.6372 8.18168L17.775 7.78148ZM18.0114 7.87706L18.1907 7.49366L18.1906 7.49359L18.0114 7.87706ZM19.4845 10.1519L19.0613 10.145L19.0613 10.1451L19.4845 10.1519ZM16.6882 12.5441L16.7455 12.1247L16.7449 12.1246L16.6882 12.5441ZM14.3468 10.5296L13.9283 10.5928L13.9283 10.593L14.3468 10.5296ZM14.3468 10.5295L14.7653 10.4663L14.7653 10.4662L14.3468 10.5295ZM14.4487 9.27007L14.851 9.40169L14.8514 9.40052L14.4487 9.27007ZM14.4488 9.26995L14.0466 9.13812L14.0461 9.13949L14.4488 9.26995ZM14.2726 7.35101L14.65 7.1593L14.65 7.15927L14.2726 7.35101ZM12.8106 6.01832L12.6719 6.41821L12.672 6.41825L12.8106 6.01832ZM12.5503 5.91286L12.7284 5.52891L12.7284 5.5289L12.5503 5.91286ZM12.5497 5.91258L12.3706 6.29606L12.3716 6.29653L12.5497 5.91258ZM10.9281 3.40125L11.3513 3.40808L11.3513 3.40805L10.9281 3.40125ZM14.0161 0.757384L13.9595 1.17684L13.9596 1.17685L14.0161 0.757384ZM14.0162 0.757396L14.0729 0.337957L14.0727 0.337935L14.0162 0.757396ZM16.3228 3.02716L15.9043 3.09045L15.9044 3.09085L16.3228 3.02716ZM16.2208 4.2868L15.8186 4.15507L15.8186 4.15509L16.2208 4.2868ZM16.3972 6.20563L16.7746 6.01393L16.7746 6.01389L16.3972 6.20563ZM17.859 7.53843L17.7202 7.93828L17.7212 7.93861L17.859 7.53843ZM18.1203 7.64407L17.9411 8.02755L17.9417 8.02782L18.1203 7.64407ZM18.1204 7.64412L18.2997 7.26072L18.2989 7.26037L18.1204 7.64412ZM19.7416 10.1562L19.3184 10.1492L19.3184 10.1493L19.7416 10.1562ZM15.0196 10.4277C14.9702 10.1017 14.9963 9.78448 15.0954 9.48166L14.2908 9.21842C14.1497 9.64969 14.1139 10.1005 14.1826 10.5543L15.0196 10.4277ZM15.0953 9.48186C15.3531 8.69544 15.2681 7.80832 14.8792 7.04281L14.1245 7.42622C14.4191 8.00614 14.4736 8.66092 14.2909 9.21821L15.0953 9.48186ZM14.8792 7.04278C14.4764 6.25011 13.8256 5.64987 13.0333 5.3754L12.7562 6.17527C13.3188 6.37019 13.8097 6.80662 14.1245 7.42625L14.8792 7.04278ZM13.0334 5.37544C12.9688 5.35302 12.9026 5.32625 12.8366 5.29563L12.4804 6.06354C12.5711 6.10561 12.6635 6.14313 12.7561 6.17523L13.0334 5.37544ZM12.8376 5.2961C12.0685 4.93685 11.5958 4.19102 11.6084 3.41223L10.762 3.39857C10.7437 4.53232 11.4277 5.57182 12.4794 6.06307L12.8376 5.2961ZM11.6084 3.4122C11.6261 2.31085 12.5392 1.41234 13.641 1.41234V0.565832C12.0771 0.565832 10.7871 1.83497 10.762 3.39859L11.6084 3.4122ZM13.641 1.41234C13.7343 1.41234 13.8302 1.41889 13.9252 1.43169L14.0383 0.592773C13.907 0.575063 13.7733 0.565832 13.641 0.565832V1.41234ZM13.925 1.43167C14.8065 1.55085 15.5172 2.25017 15.6501 3.12904L16.4871 3.00252C16.2979 1.75147 15.2922 0.762309 14.0385 0.592793L13.925 1.43167ZM15.6501 3.12948C15.6996 3.45432 15.6737 3.77125 15.5742 4.07504L16.3786 4.33851C16.5202 3.90632 16.556 3.45539 16.487 3.00208L15.6501 3.12948ZM15.5742 4.07506C15.3167 4.86128 15.4017 5.74854 15.7907 6.51387L16.5453 6.13039C16.2507 5.55063 16.1962 4.89565 16.3786 4.33849L15.5742 4.07506ZM15.7906 6.51383C16.1934 7.3066 16.8443 7.90655 17.6363 8.18135L17.9138 7.38161C17.3509 7.18633 16.8601 6.74996 16.5453 6.13043L15.7906 6.51383ZM17.6372 8.18168C17.7018 8.2039 17.7678 8.23041 17.8323 8.26053L18.1906 7.49359C18.0984 7.4505 18.0047 7.4129 17.9128 7.38128L17.6372 8.18168ZM17.8321 8.26046C18.6018 8.62039 19.0742 9.36628 19.0613 10.145L19.9077 10.1589C19.9264 9.02504 19.2426 7.98559 18.1907 7.49366L17.8321 8.26046ZM19.0613 10.1451C19.0436 11.2458 18.1305 12.144 17.0287 12.144V12.9905C18.5922 12.9905 19.8826 11.722 19.9077 10.1587L19.0613 10.1451ZM17.0287 12.144C16.9348 12.144 16.8393 12.1375 16.7455 12.1247L16.6309 12.9634C16.7629 12.9815 16.8967 12.9905 17.0287 12.9905V12.144ZM16.7449 12.1246C15.8634 12.0054 15.1527 11.3061 15.0195 10.4276L14.1826 10.5545C14.3722 11.8049 15.3777 12.794 16.6315 12.9635L16.7449 12.1246ZM13.9283 10.593C14.135 11.9563 15.23 13.0333 16.5966 13.2183L16.7102 12.3794C15.7157 12.2448 14.9156 11.4575 14.7653 10.4661L13.9283 10.593ZM13.9283 10.5927L13.9283 10.5928L14.7653 10.4664L14.7653 10.4663L13.9283 10.5927ZM14.0464 9.13846C13.8926 9.60874 13.8538 10.1002 13.9283 10.5928L14.7653 10.4662C14.7101 10.1013 14.7391 9.74353 14.851 9.40169L14.0464 9.13846ZM14.0461 9.13949L14.0461 9.13962L14.8514 9.40052L14.8514 9.4004L14.0461 9.13949ZM13.8953 7.54271C14.1612 8.0662 14.2064 8.65039 14.0466 9.13812L14.851 9.40177C15.0859 8.68501 15.0103 7.86848 14.65 7.1593L13.8953 7.54271ZM12.672 6.41825C13.1649 6.58903 13.6072 6.97574 13.8953 7.54274L14.65 7.15927C14.2739 6.41911 13.6716 5.86867 12.9491 5.61838L12.672 6.41825ZM12.3722 6.29682C12.4704 6.34237 12.5709 6.38319 12.6719 6.41821L12.9492 5.61843C12.8761 5.59306 12.8019 5.563 12.7284 5.52891L12.3722 6.29682ZM12.3716 6.29653L12.3722 6.29682L12.7284 5.5289L12.7278 5.52862L12.3716 6.29653ZM10.5049 3.39442C10.4848 4.63614 11.2331 5.76477 12.3706 6.29606L12.7288 5.52909C11.8737 5.12968 11.337 4.29456 11.3513 3.40808L10.5049 3.39442ZM13.641 0.308678C11.9368 0.308678 10.5323 1.69041 10.5049 3.39444L11.3513 3.40805C11.3712 2.16629 12.3989 1.15519 13.641 1.15519V0.308678ZM14.0727 0.337925C13.9303 0.318725 13.7851 0.308678 13.641 0.308678V1.15519C13.7462 1.15519 13.8535 1.16255 13.9595 1.17684L14.0727 0.337925ZM14.0727 0.337935L14.0727 0.337923L13.9596 1.17685L13.9597 1.17686L14.0727 0.337935ZM16.7413 2.96387C16.535 1.59985 15.4397 0.522753 14.0729 0.337957L13.9595 1.17684C14.954 1.3113 15.7543 2.09859 15.9043 3.09045L16.7413 2.96387ZM16.623 4.41854C16.7773 3.94738 16.8162 3.45577 16.7412 2.96347L15.9044 3.09085C15.9597 3.45469 15.9308 3.8123 15.8186 4.15507L16.623 4.41854ZM16.7746 6.01389C16.5086 5.49055 16.4634 4.90614 16.623 4.41852L15.8186 4.15509C15.5839 4.87167 15.6596 5.68837 16.0199 6.39738L16.7746 6.01389ZM17.9978 7.13857C17.5047 6.96739 17.0625 6.58068 16.7746 6.01393L16.0199 6.39733C16.3959 7.1374 16.998 7.68759 17.7202 7.93828L17.9978 7.13857ZM18.2994 7.2606C18.1989 7.21363 18.0969 7.17269 17.9968 7.13824L17.7212 7.93861C17.7939 7.96367 17.8683 7.99352 17.9411 8.02755L18.2994 7.2606ZM18.2989 7.26037L18.2988 7.26032L17.9417 8.02782L17.9418 8.02787L18.2989 7.26037ZM20.1648 10.1632C20.1853 8.92124 19.4372 7.79269 18.2997 7.26072L17.9411 8.02752C18.7966 8.42761 19.3331 9.26276 19.3184 10.1492L20.1648 10.1632ZM17.0287 13.2476C18.7324 13.2476 20.1374 11.8668 20.1648 10.163L19.3184 10.1493C19.2984 11.3905 18.2707 12.4011 17.0287 12.4011V13.2476ZM16.5963 13.2182C16.7398 13.2378 16.8852 13.2476 17.0287 13.2476V12.4011C16.9233 12.4011 16.8162 12.3939 16.7109 12.3795L16.5963 13.2182Z" fill="#4A4A4A" mask="url(#path-6-outside-2_2265_4421)"/>
<path d="M50.1119 10.8316C49.4641 10.8316 48.8944 10.695 48.4027 10.4218C47.9188 10.1487 47.5403 9.76628 47.2672 9.2746C47.0018 8.78293 46.8691 8.21321 46.8691 7.56545C46.8691 6.9333 47.0057 6.37529 47.2789 5.89142C47.5598 5.39974 47.9422 5.01343 48.4261 4.73247C48.9178 4.45151 49.4758 4.31104 50.1001 4.31104C50.623 4.31104 51.0952 4.40859 51.5166 4.6037C51.9381 4.79881 52.2893 5.07196 52.5702 5.42316C52.859 5.76655 53.0619 6.16847 53.179 6.62893C53.296 7.08158 53.3077 7.56545 53.2141 8.08054H48.0749V6.82794H51.0718C51.064 6.50796 50.9664 6.25432 50.7791 6.06701C50.5918 5.87971 50.3499 5.78606 50.0533 5.78606C49.7958 5.78606 49.5812 5.85239 49.4095 5.98507C49.2456 6.10994 49.1207 6.30505 49.0348 6.57039C48.949 6.83574 48.9061 7.17133 48.9061 7.57716C48.9061 7.95177 48.949 8.26784 49.0348 8.52539C49.1207 8.77512 49.2495 8.96243 49.4212 9.0873C49.5929 9.21217 49.8075 9.2746 50.065 9.2746C50.346 9.2746 50.5801 9.21607 50.7674 9.09901C50.9547 8.98194 51.0913 8.81024 51.1771 8.58392H53.179C52.9839 9.30192 52.6209 9.85603 52.0903 10.2462C51.5596 10.6365 50.9001 10.8316 50.1119 10.8316Z" fill="#4A4A4A"/>
<path d="M47.1287 4.42822L44.8693 10.7263H42.6451L40.3623 4.42822H42.5397L43.804 8.45527L45.0917 4.42822H47.1287Z" fill="#4A4A4A"/>
<path d="M37.3315 10.8433C36.8633 10.8433 36.4301 10.7613 36.0321 10.5974C35.6341 10.4257 35.2868 10.1916 34.9902 9.89505C34.6937 9.59068 34.4595 9.24339 34.2878 8.85317C34.1239 8.45515 34.042 8.02981 34.042 7.57716C34.042 7.1245 34.1239 6.70307 34.2878 6.31285C34.4595 5.91483 34.6937 5.56754 34.9902 5.27097C35.2868 4.9666 35.6341 4.73247 36.0321 4.56858C36.4301 4.39688 36.8633 4.31104 37.3315 4.31104C37.7998 4.31104 38.2329 4.39688 38.631 4.56858C39.029 4.73247 39.3763 4.9666 39.6728 5.27097C39.9694 5.56754 40.1996 5.91483 40.3635 6.31285C40.5352 6.70307 40.6211 7.1245 40.6211 7.57716C40.6211 8.02981 40.5352 8.45515 40.3635 8.85317C40.1996 9.24339 39.9694 9.59068 39.6728 9.89505C39.3763 10.1916 39.029 10.4257 38.631 10.5974C38.2329 10.7613 37.7998 10.8433 37.3315 10.8433ZM37.3315 9.05218C37.5422 9.05218 37.7374 8.99755 37.9169 8.88829C38.1042 8.77903 38.2524 8.61514 38.3617 8.39661C38.4788 8.17809 38.5373 7.90494 38.5373 7.57716C38.5373 7.24937 38.4788 6.97622 38.3617 6.7577C38.2524 6.53918 38.1042 6.37919 37.9169 6.27773C37.7374 6.16847 37.5422 6.11384 37.3315 6.11384C37.1286 6.11384 36.9335 6.16847 36.7462 6.27773C36.5589 6.37919 36.4067 6.53918 36.2896 6.7577C36.1804 6.97622 36.1258 7.24937 36.1258 7.57716C36.1258 7.90494 36.1804 8.17809 36.2896 8.39661C36.4067 8.61514 36.5589 8.77903 36.7462 8.88829C36.9335 8.99755 37.1286 9.05218 37.3315 9.05218Z" fill="#4A4A4A"/>
<path d="M25.8378 10.7262H23.8359V4.4281H25.6739V5.20073C25.9158 4.91977 26.1772 4.70125 26.4582 4.54517C26.7392 4.38908 27.0825 4.31104 27.4884 4.31104C27.8864 4.31104 28.2376 4.39298 28.542 4.55687C28.8541 4.72076 29.0961 4.9627 29.2678 5.28268C29.5409 4.97831 29.8297 4.74027 30.134 4.56858C30.4462 4.39688 30.8325 4.31104 31.293 4.31104C31.9173 4.31104 32.4285 4.51395 32.8266 4.91977C33.2246 5.3256 33.4236 5.91093 33.4236 6.67575V10.7262H31.4218V7.2962C31.4218 6.9294 31.3476 6.64063 31.1993 6.42992C31.0589 6.2192 30.8442 6.11384 30.5555 6.11384C30.3916 6.11384 30.2394 6.15676 30.0989 6.24261C29.9585 6.32066 29.8453 6.44943 29.7594 6.62893C29.6736 6.80062 29.6307 7.02695 29.6307 7.30791V10.7262H27.6289V7.2962C27.6289 6.9294 27.5547 6.64063 27.4064 6.42992C27.266 6.2192 27.0513 6.11384 26.7626 6.11384C26.5909 6.11384 26.4348 6.15676 26.2943 6.24261C26.1538 6.32066 26.0407 6.44943 25.9548 6.62893C25.8768 6.80062 25.8378 7.02695 25.8378 7.30791V10.7262Z" fill="#4A4A4A"/>
<g filter="url(#filter0_b_2265_4421)">
<path d="M89.1754 7.80433V10.7156H87.168V4.39998H89.011V5.5152C89.2536 5.14737 89.6019 4.86172 90.0558 4.65824C90.5175 4.45477 90.9988 4.35303 91.4997 4.35303V6.44259C91.0301 6.39563 90.6193 6.39172 90.2671 6.43085C89.9227 6.46216 89.6527 6.58346 89.4571 6.79476C89.2693 6.99824 89.1754 7.33476 89.1754 7.80433Z" fill="#4A4A4A"/>
</g>
<g filter="url(#filter1_b_2265_4421)">
<path d="M83.4373 10.8214C82.7877 10.8214 82.2164 10.6844 81.7234 10.4105C81.2382 10.1366 80.8586 9.75314 80.5847 9.2601C80.3186 8.76706 80.1855 8.19575 80.1855 7.54619C80.1855 6.91228 80.3225 6.35271 80.5964 5.8675C80.8782 5.37445 81.2616 4.98706 81.7469 4.70532C82.2399 4.42358 82.7995 4.28271 83.4255 4.28271C83.9499 4.28271 84.4234 4.38054 84.846 4.57619C85.2686 4.77184 85.6208 5.04576 85.9025 5.39793C86.1921 5.74228 86.3955 6.14532 86.5129 6.60706C86.6303 7.06097 86.6421 7.54619 86.5481 8.06271H81.3947V6.80663H84.3999C84.3921 6.48576 84.2942 6.23141 84.1064 6.04358C83.9186 5.85576 83.676 5.76184 83.3786 5.76184C83.1203 5.76184 82.9051 5.82837 82.7329 5.96141C82.5686 6.08663 82.4434 6.28228 82.3573 6.54836C82.2712 6.81445 82.2282 7.15097 82.2282 7.55793C82.2282 7.93358 82.2712 8.25054 82.3573 8.5088C82.4434 8.75923 82.5725 8.94706 82.7447 9.07228C82.9168 9.19749 83.1321 9.2601 83.3903 9.2601C83.6721 9.2601 83.9068 9.20141 84.0947 9.08401C84.2825 8.96662 84.4195 8.79445 84.5055 8.56749H86.5129C86.3173 9.28749 85.9534 9.84314 85.4212 10.2344C84.889 10.6258 84.2277 10.8214 83.4373 10.8214Z" fill="#4A4A4A"/>
</g>
<g filter="url(#filter2_b_2265_4421)">
<path d="M80.108 8.74367V10.4928C79.8889 10.618 79.6659 10.7041 79.4389 10.7511C79.212 10.8058 78.9576 10.8332 78.6759 10.8332C78.2063 10.8332 77.8033 10.7432 77.4667 10.5632C77.1302 10.3832 76.872 10.1211 76.692 9.77671C76.512 9.43236 76.422 9.02149 76.422 8.5441V6.14932H75.248V4.40019H76.422V2.54541H78.4293V4.40019H80.155V6.14932H78.4293V8.07453C78.4293 8.37975 78.4959 8.60671 78.6289 8.7554C78.762 8.89627 78.9654 8.96671 79.2393 8.96671C79.4037 8.96671 79.5602 8.94714 79.7089 8.90801C79.8654 8.86888 79.9985 8.8141 80.108 8.74367Z" fill="#4A4A4A"/>
</g>
<g filter="url(#filter3_b_2265_4421)">
<path d="M71.1793 7.39358V10.7158H69.1719V4.40011H71.0149V5.16315C71.2654 4.88924 71.5393 4.67402 71.8367 4.5175C72.1419 4.36098 72.494 4.28271 72.8932 4.28271C73.5193 4.28271 74.028 4.48619 74.4193 4.89315C74.8184 5.30011 75.018 5.88706 75.018 6.65402V10.7158H73.0106V7.32315C73.0106 6.92402 72.9362 6.6188 72.7875 6.4075C72.6467 6.19619 72.4236 6.09054 72.1184 6.09054C71.954 6.09054 71.7975 6.13358 71.6488 6.21967C71.508 6.30576 71.3945 6.44271 71.3084 6.63054C71.2223 6.81836 71.1793 7.07271 71.1793 7.39358Z" fill="#4A4A4A"/>
</g>
<g filter="url(#filter4_b_2265_4421)">
<path d="M65.4412 10.8214C64.7916 10.8214 64.2203 10.6844 63.7273 10.4105C63.2421 10.1366 62.8625 9.75314 62.5886 9.2601C62.3225 8.76706 62.1895 8.19575 62.1895 7.54619C62.1895 6.91228 62.3264 6.35271 62.6003 5.8675C62.8821 5.37445 63.2655 4.98706 63.7508 4.70532C64.2438 4.42358 64.8034 4.28271 65.4295 4.28271C65.9538 4.28271 66.4273 4.38054 66.8499 4.57619C67.2725 4.77184 67.6247 5.04576 67.9064 5.39793C68.196 5.74228 68.3994 6.14532 68.5168 6.60706C68.6342 7.06097 68.646 7.54619 68.5521 8.06271H63.3986V6.80663H66.4038C66.396 6.48576 66.2981 6.23141 66.1103 6.04358C65.9225 5.85576 65.6799 5.76184 65.3825 5.76184C65.1242 5.76184 64.909 5.82837 64.7368 5.96141C64.5725 6.08663 64.4473 6.28228 64.3612 6.54836C64.2751 6.81445 64.2321 7.15097 64.2321 7.55793C64.2321 7.93358 64.2751 8.25054 64.3612 8.5088C64.4473 8.75923 64.5764 8.94706 64.7486 9.07228C64.9208 9.19749 65.136 9.2601 65.3942 9.2601C65.676 9.2601 65.9108 9.20141 66.0986 9.08401C66.2864 8.96662 66.4234 8.79445 66.5094 8.56749H68.5168C68.3212 9.28749 67.9573 9.84314 67.4251 10.2344C66.8929 10.6258 66.2316 10.8214 65.4412 10.8214Z" fill="#4A4A4A"/>
</g>
<g filter="url(#filter5_b_2265_4421)">
<path d="M58.8209 10.8331C58.1949 10.8331 57.6431 10.6962 57.1657 10.4223C56.6883 10.1405 56.3127 9.75314 56.0388 9.2601C55.7727 8.76706 55.6396 8.19967 55.6396 7.55793C55.6396 6.93184 55.7766 6.37228 56.0505 5.87923C56.3323 5.38619 56.7118 4.9988 57.1892 4.71706C57.6744 4.4275 58.2183 4.28271 58.8209 4.28271C59.4001 4.28271 59.9205 4.40793 60.3823 4.65837C60.844 4.90098 61.2196 5.24141 61.5092 5.67967C61.7988 6.11793 61.9709 6.63054 62.0257 7.21749H59.8892C59.8736 6.87315 59.7679 6.59923 59.5723 6.39576C59.3844 6.19228 59.1379 6.09054 58.8327 6.09054C58.5979 6.09054 58.3983 6.14923 58.234 6.26663C58.0696 6.38402 57.9405 6.55228 57.8466 6.77141C57.7605 6.98271 57.7175 7.24489 57.7175 7.55793C57.7175 7.87097 57.7605 8.14097 57.8466 8.36793C57.9327 8.58706 58.0579 8.75532 58.2223 8.87271C58.3944 8.98228 58.5979 9.03706 58.8327 9.03706C59.1457 9.03706 59.3923 8.93923 59.5723 8.74358C59.7601 8.5401 59.8657 8.25836 59.8892 7.89836H62.0257C61.9709 8.50097 61.8027 9.02141 61.5209 9.45967C61.2392 9.89793 60.8675 10.2384 60.4057 10.481C59.9518 10.7158 59.4236 10.8331 58.8209 10.8331Z" fill="#4A4A4A"/>
</g>
<defs>
<filter id="filter0_b_2265_4421" x="83.6294" y="0.814425" width="11.4092" height="13.44" filterUnits="userSpaceOnUse" color-interpolation-filters="sRGB">
<feFlood flood-opacity="0" result="BackgroundImageFix"/>
<feGaussianBlur in="BackgroundImageFix" stdDeviation="1.7693"/>
<feComposite in2="SourceAlpha" operator="in" result="effect1_backgroundBlur_2265_4421"/>
<feBlend mode="normal" in="SourceGraphic" in2="effect1_backgroundBlur_2265_4421" result="shape"/>
</filter>
<filter id="filter1_b_2265_4421" x="76.6469" y="0.744112" width="13.502" height="13.6158" filterUnits="userSpaceOnUse" color-interpolation-filters="sRGB">
<feFlood flood-opacity="0" result="BackgroundImageFix"/>
<feGaussianBlur in="BackgroundImageFix" stdDeviation="1.7693"/>
<feComposite in2="SourceAlpha" operator="in" result="effect1_backgroundBlur_2265_4421"/>
<feBlend mode="normal" in="SourceGraphic" in2="effect1_backgroundBlur_2265_4421" result="shape"/>
</filter>
<filter id="filter2_b_2265_4421" x="71.7094" y="-0.993192" width="11.9844" height="15.3648" filterUnits="userSpaceOnUse" color-interpolation-filters="sRGB">
<feFlood flood-opacity="0" result="BackgroundImageFix"/>
<feGaussianBlur in="BackgroundImageFix" stdDeviation="1.7693"/>
<feComposite in2="SourceAlpha" operator="in" result="effect1_backgroundBlur_2265_4421"/>
<feBlend mode="normal" in="SourceGraphic" in2="effect1_backgroundBlur_2265_4421" result="shape"/>
</filter>
<filter id="filter3_b_2265_4421" x="65.6333" y="0.744112" width="12.9229" height="13.5103" filterUnits="userSpaceOnUse" color-interpolation-filters="sRGB">
<feFlood flood-opacity="0" result="BackgroundImageFix"/>
<feGaussianBlur in="BackgroundImageFix" stdDeviation="1.7693"/>
<feComposite in2="SourceAlpha" operator="in" result="effect1_backgroundBlur_2265_4421"/>
<feBlend mode="normal" in="SourceGraphic" in2="effect1_backgroundBlur_2265_4421" result="shape"/>
</filter>
<filter id="filter4_b_2265_4421" x="58.6509" y="0.744112" width="13.502" height="13.6158" filterUnits="userSpaceOnUse" color-interpolation-filters="sRGB">
<feFlood flood-opacity="0" result="BackgroundImageFix"/>
<feGaussianBlur in="BackgroundImageFix" stdDeviation="1.7693"/>
<feComposite in2="SourceAlpha" operator="in" result="effect1_backgroundBlur_2265_4421"/>
<feBlend mode="normal" in="SourceGraphic" in2="effect1_backgroundBlur_2265_4421" result="shape"/>
</filter>
<filter id="filter5_b_2265_4421" x="52.101" y="0.744112" width="13.4629" height="13.6275" filterUnits="userSpaceOnUse" color-interpolation-filters="sRGB">
<feFlood flood-opacity="0" result="BackgroundImageFix"/>
<feGaussianBlur in="BackgroundImageFix" stdDeviation="1.7693"/>
<feComposite in2="SourceAlpha" operator="in" result="effect1_backgroundBlur_2265_4421"/>
<feBlend mode="normal" in="SourceGraphic" in2="effect1_backgroundBlur_2265_4421" result="shape"/>
</filter>
</defs>
</svg>
