<svg width="46" height="15" viewBox="0 0 46 15" fill="none" xmlns="http://www.w3.org/2000/svg">
<g clip-path="url(#clip0_2208_2769)">
<path d="M5.75411 5.64058V7.12956H9.46962C9.37098 7.95325 9.07505 8.58686 8.61473 8.9987C8.08864 9.50559 7.23374 10.0758 5.75411 10.0758C3.48535 10.0758 1.70979 8.30173 1.70979 6.11578C1.70979 3.92983 3.45247 2.15573 5.75411 2.15573C6.97069 2.15573 7.89135 2.63094 8.54896 3.23286L9.63402 2.18741C8.71337 1.33204 7.4639 0.666748 5.75411 0.666748C2.63045 0.666748 0 3.10614 0 6.11578C0 9.12543 2.63045 11.5648 5.75411 11.5648C7.43102 11.5648 8.71337 11.0263 9.69979 10.0442C10.7191 9.06207 11.0479 7.66813 11.0479 6.55931C11.0479 6.21083 11.015 5.89402 10.9821 5.64058H5.75411Z" fill="white"/>
<path d="M15.6514 4.40503C13.6457 4.40503 11.9688 5.89401 11.9688 7.92156C11.9688 9.94911 13.6128 11.4381 15.6514 11.4381C17.69 11.4381 19.334 9.98079 19.334 7.95324C19.334 5.89401 17.69 4.40503 15.6514 4.40503ZM15.6514 10.0758C14.5334 10.0758 13.5799 9.18878 13.5799 7.95324C13.5799 6.68602 14.5334 5.83065 15.6514 5.83065C16.7693 5.83065 17.7229 6.68602 17.7229 7.95324C17.7229 9.18878 16.7693 10.0758 15.6514 10.0758Z" fill="white"/>
<path d="M33.6362 5.19704H33.5705C33.2088 4.78519 32.5183 4.40503 31.6305 4.40503C29.7892 4.40503 28.2109 5.92569 28.2109 7.92156C28.2109 9.88575 29.7892 11.4381 31.6305 11.4381C32.5183 11.4381 33.2088 11.0579 33.5705 10.6461H33.6362V11.153C33.6362 12.4835 32.88 13.2122 31.6963 13.2122C30.7099 13.2122 30.118 12.5469 29.855 11.945L28.474 12.5152C28.8685 13.434 29.9536 14.6061 31.7292 14.6061C33.6034 14.6061 35.2145 13.529 35.2145 10.9312V4.59511H33.702V5.19704H33.6362ZM31.7949 10.0758C30.677 10.0758 29.855 9.1571 29.855 7.95324C29.855 6.7177 30.7099 5.83065 31.7949 5.83065C32.88 5.83065 33.7349 6.74938 33.7349 7.98492C33.7678 9.18878 32.9129 10.0758 31.7949 10.0758Z" fill="white"/>
<path d="M23.8389 4.40503C21.8332 4.40503 20.1562 5.89401 20.1562 7.92156C20.1562 9.94911 21.8003 11.4381 23.8389 11.4381C25.8775 11.4381 27.5215 9.98079 27.5215 7.95324C27.5215 5.89401 25.8775 4.40503 23.8389 4.40503ZM23.8389 10.0758C22.7209 10.0758 21.7674 9.18878 21.7674 7.95324C21.7674 6.68602 22.7209 5.83065 23.8389 5.83065C24.9568 5.83065 25.9104 6.68602 25.9104 7.95324C25.9104 9.18878 24.9568 10.0758 23.8389 10.0758Z" fill="white"/>
<path d="M36.4316 0.825195H38.0099V11.4698H36.4316V0.825195Z" fill="white"/>
<path d="M42.8757 10.0758C42.0536 10.0758 41.4947 9.72734 41.1001 8.99869L45.9993 7.06619L45.8349 6.65434C45.539 5.86233 44.5854 4.40503 42.7113 4.40503C40.8371 4.40503 39.2588 5.83065 39.2588 7.92156C39.2588 9.88575 40.8042 11.4381 42.8757 11.4381C44.5526 11.4381 45.5061 10.456 45.9336 9.88575L44.6841 9.09373C44.2566 9.69566 43.6977 10.0758 42.8757 10.0758ZM42.777 5.73561C43.4346 5.73561 43.9936 6.05241 44.158 6.49594L40.8699 7.82652C40.8371 6.36922 41.955 5.73561 42.777 5.73561Z" fill="white"/>
</g>
<defs>
<clipPath id="clip0_2208_2769">
<rect width="46" height="13.9394" fill="white" transform="translate(0 0.666748)"/>
</clipPath>
</defs>
</svg>
