<svg width="216" height="32" viewBox="0 0 216 32" fill="none" xmlns="http://www.w3.org/2000/svg">
<path d="M0.696219 24.5007C0.696219 28.0002 3.54421 30.8485 7.04525 30.8485C10.5457 30.8485 13.3935 28.0002 13.3935 24.5007C13.3935 20.9993 10.5458 18.1513 7.04525 18.1513C3.54417 18.1513 0.696219 20.9993 0.696219 24.5007ZM3.53414 24.5007C3.53414 22.5644 5.10933 20.9886 7.04525 20.9886C8.98053 20.9886 10.5557 22.5644 10.5557 24.5007C10.5557 26.4353 8.9807 28.0104 7.04525 28.0104C5.10916 28.0104 3.53414 26.4353 3.53414 24.5007Z" fill="white" stroke="white" stroke-width="0.607563"/>
<path d="M24.0519 29.4177C23.7852 29.4177 23.5142 29.3994 23.2475 29.363C20.7251 29.0219 18.6976 27.0273 18.3163 24.5124C18.177 23.5911 18.2501 22.6838 18.5338 21.8166C19.0541 20.2293 18.8894 18.4078 18.082 16.8184C17.2342 15.1501 15.8854 13.9254 14.2849 13.3709C14.0992 13.3065 13.9119 13.2306 13.7268 13.1447C11.5758 12.14 10.2094 10.0309 10.2458 7.77161C10.2965 4.62342 12.8991 2.06274 16.0481 2.06274C16.3146 2.06274 16.5857 2.08138 16.8531 2.11742C19.3755 2.45847 21.4031 4.4531 21.7834 6.96922C21.9234 7.88846 21.8505 8.79555 21.5657 9.66497C21.0461 11.2519 21.2109 13.0738 22.0184 14.6628C22.8659 16.3312 24.2147 17.5554 25.8152 18.1107C25.9999 18.1743 26.1887 18.25 26.3738 18.3365C28.5256 19.3428 29.8914 21.4519 29.8541 23.7112C29.8035 26.8582 27.2005 29.4177 24.0519 29.4177ZM16.0483 3.80949C13.8475 3.80949 12.0276 5.59977 11.9926 7.79935C11.9671 9.37132 12.9381 10.8483 14.4658 11.5614C14.596 11.6223 14.7278 11.6756 14.8574 11.7204C16.8875 12.4237 18.5856 13.9523 19.6394 16.0264C20.6556 18.0279 20.8581 20.3358 20.1943 22.3602C19.9964 22.9657 19.9454 23.6023 20.0436 24.2513C20.3054 25.9764 21.751 27.3983 23.4814 27.632C23.6713 27.6569 23.8631 27.6703 24.0519 27.6703C26.2529 27.6703 28.0725 25.8816 28.1078 23.6821C28.1335 22.1109 27.1628 20.6331 25.6348 19.9188C25.5054 19.8591 25.3748 19.806 25.2459 19.7615C23.213 19.0573 21.5147 17.5278 20.461 15.4536C19.4453 13.4541 19.2426 11.1464 19.9057 9.12121C20.1041 8.51486 20.1548 7.87793 20.0563 7.23006C19.7955 5.50438 18.3499 4.08188 16.6192 3.84817C16.4288 3.82265 16.2368 3.80949 16.0483 3.80949Z" fill="white"/>
<path d="M40.0509 29.4177C39.7842 29.4177 39.5132 29.3994 39.2465 29.363C36.7241 29.0219 34.6967 27.0273 34.3153 24.5124C34.176 23.5911 34.2491 22.6838 34.5328 21.8166C35.0531 20.2293 34.8884 18.4078 34.081 16.8184C33.2332 15.1501 31.8845 13.9254 30.2839 13.3709C30.0982 13.3065 29.9109 13.2306 29.7258 13.1447C27.5748 12.14 26.2084 10.0309 26.2449 7.77161C26.2955 4.62342 28.8981 2.06274 32.0471 2.06274C32.3136 2.06274 32.5848 2.08138 32.8521 2.11742C35.3745 2.45847 37.4021 4.4531 37.7825 6.96922C37.9224 7.88846 37.8495 8.79555 37.5648 9.66497C37.0451 11.2519 37.2099 13.0738 38.0174 14.6628C38.8649 16.3312 40.2137 17.5554 41.8143 18.1107C41.999 18.1743 42.1877 18.25 42.3728 18.3365C44.5246 19.3428 45.8904 21.4519 45.8531 23.7112C45.8025 26.8582 43.1995 29.4177 40.0509 29.4177ZM32.0473 3.80949C29.8465 3.80949 28.0266 5.59977 27.9916 7.79935C27.9661 9.37132 28.9372 10.8483 30.4648 11.5614C30.595 11.6223 30.7268 11.6756 30.8565 11.7204C32.8865 12.4237 34.5847 13.9523 35.6384 16.0264C36.6546 18.0279 36.8572 20.3358 36.1933 22.3602C35.9954 22.9657 35.9444 23.6023 36.0426 24.2513C36.3045 25.9764 37.7501 27.3983 39.4804 27.632C39.6704 27.6569 39.8622 27.6703 40.0509 27.6703C42.2519 27.6703 44.0716 25.8816 44.1068 23.6821C44.1325 22.1109 43.1618 20.6331 41.6338 19.9188C41.5044 19.8591 41.3738 19.806 41.245 19.7615C39.2121 19.0573 37.5137 17.5278 36.46 15.4536C35.4444 13.4541 35.2416 11.1464 35.9047 9.12121C36.1032 8.51486 36.1538 7.87793 36.0554 7.23006C35.7945 5.50438 34.3489 4.08188 32.6182 3.84817C32.4278 3.82265 32.2358 3.80949 32.0473 3.80949Z" fill="white"/>
<mask id="path-4-outside-1_2208_2707" maskUnits="userSpaceOnUse" x="8.6377" y="0.455078" width="23" height="31" fill="black">
<rect fill="white" x="8.6377" y="0.455078" width="23" height="31"/>
<path fill-rule="evenodd" clip-rule="evenodd" d="M18.3164 24.5123C18.1771 23.591 18.2502 22.6837 18.5339 21.8165C19.0542 20.2292 18.8896 18.4077 18.0821 16.8183C17.2344 15.1499 15.8856 13.9253 14.2851 13.3708C14.0993 13.3064 13.912 13.2305 13.7269 13.1446C11.5759 12.1399 10.2095 10.0308 10.246 7.7715C10.2966 4.62332 12.8992 2.06264 16.0482 2.06264C16.3147 2.06264 16.5859 2.08127 16.8532 2.11732C19.3756 2.45837 21.4033 4.453 21.7836 6.96912C21.9235 7.88836 21.8506 8.79545 21.5659 9.66487C21.0462 11.2518 21.2111 13.0737 22.0185 14.6627C22.8661 16.3311 24.2149 17.5553 25.8154 18.1106C26.0001 18.1742 26.1888 18.2499 26.3739 18.3364C28.5257 19.3427 29.8915 21.4518 29.8543 23.7111C29.8036 26.8581 27.2006 29.4176 24.052 29.4176C23.7853 29.4176 23.5143 29.3993 23.2476 29.3629C20.7252 29.0218 18.6978 27.0272 18.3164 24.5123ZM23.1653 29.9648C20.3762 29.5873 18.1375 27.3849 17.7157 24.6034L17.7157 24.6031C17.5625 23.5902 17.6426 22.587 17.9565 21.6276L17.9566 21.6273C18.423 20.2044 18.2802 18.5497 17.5405 17.0935C16.7558 15.5494 15.5219 14.4423 14.0862 13.9449C13.8804 13.8735 13.6741 13.7898 13.4712 13.6957L13.4698 13.6951C11.116 12.5956 9.59792 10.2758 9.63849 7.7617C9.69445 4.28177 12.5675 1.45508 16.0482 1.45508C16.3427 1.45508 16.641 1.47564 16.9344 1.51521L16.9346 1.51524C19.7241 1.89239 21.9634 4.09483 22.3843 6.87786C22.5382 7.88924 22.4582 8.89244 22.1433 9.85395C21.6774 11.2765 21.8204 12.9317 22.5602 14.3874C23.3444 15.9312 24.5781 17.038 26.0138 17.5364C26.2179 17.6066 26.4263 17.6903 26.6311 17.786L26.6313 17.7861C28.9857 18.8871 30.5032 21.2069 30.4617 23.7211C30.4056 27.2 27.5319 30.0251 24.052 30.0251C23.7581 30.0251 23.4598 30.0051 23.1658 29.9649"/>
</mask>
<path fill-rule="evenodd" clip-rule="evenodd" d="M18.3164 24.5123C18.1771 23.591 18.2502 22.6837 18.5339 21.8165C19.0542 20.2292 18.8896 18.4077 18.0821 16.8183C17.2344 15.1499 15.8856 13.9253 14.2851 13.3708C14.0993 13.3064 13.912 13.2305 13.7269 13.1446C11.5759 12.1399 10.2095 10.0308 10.246 7.7715C10.2966 4.62332 12.8992 2.06264 16.0482 2.06264C16.3147 2.06264 16.5859 2.08127 16.8532 2.11732C19.3756 2.45837 21.4033 4.453 21.7836 6.96912C21.9235 7.88836 21.8506 8.79545 21.5659 9.66487C21.0462 11.2518 21.2111 13.0737 22.0185 14.6627C22.8661 16.3311 24.2149 17.5553 25.8154 18.1106C26.0001 18.1742 26.1888 18.2499 26.3739 18.3364C28.5257 19.3427 29.8915 21.4518 29.8543 23.7111C29.8036 26.8581 27.2006 29.4176 24.052 29.4176C23.7853 29.4176 23.5143 29.3993 23.2476 29.3629C20.7252 29.0218 18.6978 27.0272 18.3164 24.5123ZM23.1653 29.9648C20.3762 29.5873 18.1375 27.3849 17.7157 24.6034L17.7157 24.6031C17.5625 23.5902 17.6426 22.587 17.9565 21.6276L17.9566 21.6273C18.423 20.2044 18.2802 18.5497 17.5405 17.0935C16.7558 15.5494 15.5219 14.4423 14.0862 13.9449C13.8804 13.8735 13.6741 13.7898 13.4712 13.6957L13.4698 13.6951C11.116 12.5956 9.59792 10.2758 9.63849 7.7617C9.69445 4.28177 12.5675 1.45508 16.0482 1.45508C16.3427 1.45508 16.641 1.47564 16.9344 1.51521L16.9346 1.51524C19.7241 1.89239 21.9634 4.09483 22.3843 6.87786C22.5382 7.88924 22.4582 8.89244 22.1433 9.85395C21.6774 11.2765 21.8204 12.9317 22.5602 14.3874C23.3444 15.9312 24.5781 17.038 26.0138 17.5364C26.2179 17.6066 26.4263 17.6903 26.6311 17.786L26.6313 17.7861C28.9857 18.8871 30.5032 21.2069 30.4617 23.7211C30.4056 27.2 27.5319 30.0251 24.052 30.0251C23.7581 30.0251 23.4598 30.0051 23.1658 29.9649" fill="white"/>
<path d="M23.2328 29.4694L23.2323 29.4693L23.0983 30.4603L23.0988 30.4604L23.2328 29.4694ZM18.3164 24.5123L17.3277 24.6618L17.3277 24.6622L18.3164 24.5123ZM18.5339 21.8165L17.5837 21.5051L17.5835 21.5056L18.5339 21.8165ZM18.0821 16.8183L18.9737 16.3654L18.9736 16.3653L18.0821 16.8183ZM14.2851 13.3708L13.9574 14.3156L13.9577 14.3157L14.2851 13.3708ZM13.7269 13.1446L13.3037 14.0506L13.3061 14.0517L13.7269 13.1446ZM10.246 7.7715L11.2458 7.78764L11.2458 7.78758L10.246 7.7715ZM16.8532 2.11732L16.9872 1.12634L16.9869 1.12629L16.8532 2.11732ZM21.7836 6.96912L20.7948 7.11858L20.795 7.11962L21.7836 6.96912ZM21.5659 9.66487L20.6155 9.35363L20.6155 9.35367L21.5659 9.66487ZM22.0185 14.6627L22.9101 14.2098L22.91 14.2097L22.0185 14.6627ZM25.8154 18.1106L25.4876 19.0554L25.4898 19.0561L25.8154 18.1106ZM26.3739 18.3364L26.7976 17.4306L26.7972 17.4304L26.3739 18.3364ZM29.8543 23.7111L28.8544 23.6946L28.8544 23.695L29.8543 23.7111ZM23.2476 29.3629L23.383 28.3721L23.3816 28.3719L23.2476 29.3629ZM17.7157 24.6034L16.7269 24.7527L16.727 24.7533L17.7157 24.6034ZM17.7157 24.6031L18.7045 24.4538L18.7045 24.4536L17.7157 24.6031ZM17.9565 21.6276L18.9069 21.9386L18.9078 21.9358L17.9565 21.6276ZM17.9566 21.6273L17.0063 21.3158L17.0053 21.3191L17.9566 21.6273ZM17.5405 17.0935L18.432 16.6406L18.432 16.6405L17.5405 17.0935ZM14.0862 13.9449L13.7585 14.8897L13.7588 14.8898L14.0862 13.9449ZM13.4712 13.6957L13.892 12.7886L13.892 12.7886L13.4712 13.6957ZM13.4698 13.6951L13.0466 14.6011L13.049 14.6022L13.4698 13.6951ZM9.63849 7.7617L10.6384 7.77783L10.6384 7.77778L9.63849 7.7617ZM16.9344 1.51521L16.8008 2.50624L16.8008 2.50624L16.9344 1.51521ZM16.9346 1.51524L17.0686 0.524254L17.0682 0.524202L16.9346 1.51524ZM22.3843 6.87786L21.3955 7.02739L21.3956 7.02833L22.3843 6.87786ZM22.1433 9.85395L21.1929 9.54271L21.1929 9.54274L22.1433 9.85395ZM22.5602 14.3874L23.4517 13.9345L23.4517 13.9344L22.5602 14.3874ZM26.0138 17.5364L25.6859 18.4811L25.6882 18.4818L26.0138 17.5364ZM26.6311 17.786L26.2078 18.692L26.2092 18.6926L26.6311 17.786ZM26.6313 17.7861L27.0549 16.8802L27.0532 16.8794L26.6313 17.7861ZM30.4617 23.7211L29.4619 23.7046L29.4619 23.705L30.4617 23.7211ZM19.3052 24.3627C19.1887 23.5924 19.2503 22.843 19.4844 22.1275L17.5835 21.5056C17.2501 22.5245 17.1655 23.5897 17.3277 24.6618L19.3052 24.3627ZM19.4842 22.128C20.0932 20.27 19.8925 18.174 18.9737 16.3654L17.1906 17.2712C17.8866 18.6414 18.0152 20.1884 17.5837 21.5051L19.4842 22.128ZM18.9736 16.3653C18.022 14.4925 16.4842 13.0744 14.6124 12.4259L13.9577 14.3157C15.2869 14.7762 16.4467 15.8074 17.1906 17.2713L18.9736 16.3653ZM14.6127 12.426C14.4599 12.373 14.3037 12.3098 14.1477 12.2374L13.3061 14.0517C13.5204 14.1511 13.7388 14.2398 13.9574 14.3156L14.6127 12.426ZM14.1501 12.2386C12.333 11.3898 11.2162 9.62763 11.2458 7.78764L9.2461 7.75537C9.20288 10.434 10.8189 12.89 13.3037 14.0506L14.1501 12.2386ZM11.2458 7.78758C11.2877 5.18548 13.4451 3.06264 16.0482 3.06264V1.06264C12.3533 1.06264 9.30551 4.06115 9.2461 7.75542L11.2458 7.78758ZM16.0482 3.06264C16.2687 3.06264 16.4952 3.0781 16.7196 3.10835L16.9869 1.12629C16.6766 1.08445 16.3607 1.06264 16.0482 1.06264V3.06264ZM16.7192 3.1083C18.8019 3.38989 20.4809 5.04212 20.7948 7.11858L22.7724 6.81965C22.3256 3.86387 19.9494 1.52684 16.9872 1.12634L16.7192 3.1083ZM20.795 7.11962C20.9118 7.8871 20.8506 8.63589 20.6155 9.35363L22.5162 9.97611C22.8506 8.95501 22.9352 7.88962 22.7722 6.81861L20.795 7.11962ZM20.6155 9.35367C20.0073 11.2112 20.2082 13.3075 21.127 15.1157L22.91 14.2097C22.214 12.8399 22.0852 11.2924 22.5162 9.97607L20.6155 9.35367ZM21.127 15.1156C22.0785 16.9886 23.6163 18.4061 25.4876 19.0554L26.1432 17.1659C24.8134 16.7045 23.6537 15.6735 22.9101 14.2098L21.127 15.1156ZM25.4898 19.0561C25.6423 19.1086 25.7983 19.1713 25.9507 19.2424L26.7972 17.4304C26.5793 17.3286 26.3579 17.2398 26.1409 17.1651L25.4898 19.0561ZM25.9503 19.2422C27.7686 20.0926 28.8847 21.8549 28.8544 23.6946L30.8541 23.7276C30.8983 21.0487 29.2828 18.5928 26.7976 17.4306L25.9503 19.2422ZM28.8544 23.695C28.8125 26.2955 26.6552 28.4176 24.052 28.4176V30.4176C27.746 30.4176 30.7947 27.4207 30.8541 23.7272L28.8544 23.695ZM24.052 28.4176C23.8303 28.4176 23.6046 28.4024 23.383 28.3721L23.1122 30.3537C23.4241 30.3963 23.7403 30.4176 24.052 30.4176V28.4176ZM23.3816 28.3719C21.299 28.0903 19.6199 26.438 19.3051 24.3624L17.3277 24.6622C17.7757 27.6164 20.1515 29.9533 23.1136 30.3539L23.3816 28.3719ZM16.727 24.7533C17.2154 27.9741 19.8023 30.5188 23.0312 30.9558L23.2995 28.9739C20.95 28.6559 19.0596 26.7957 18.7044 24.4535L16.727 24.7533ZM16.7269 24.7525L16.7269 24.7527L18.7045 24.4541L18.7045 24.4538L16.7269 24.7525ZM17.0061 21.3166C16.6425 22.4278 16.5509 23.5889 16.7269 24.7527L18.7045 24.4536C18.5741 23.5915 18.6427 22.7462 18.9069 21.9386L17.0061 21.3166ZM17.0053 21.3191L17.0052 21.3194L18.9078 21.9358L18.9079 21.9355L17.0053 21.3191ZM16.6489 17.5465C17.2772 18.7833 17.384 20.1635 17.0063 21.3158L18.9069 21.9388C19.4619 20.2453 19.2832 18.3161 18.432 16.6406L16.6489 17.5465ZM13.7588 14.8898C14.9234 15.2933 15.9683 16.2069 16.649 17.5466L18.432 16.6405C17.5434 14.8918 16.1204 13.5913 14.4135 13L13.7588 14.8898ZM13.0504 14.6029C13.2824 14.7105 13.5199 14.8069 13.7585 14.8897L14.4138 13.0001C14.241 12.9402 14.0657 12.8691 13.892 12.7886L13.0504 14.6029ZM13.049 14.6022L13.0504 14.6029L13.892 12.7886L13.8906 12.7879L13.049 14.6022ZM8.63862 7.74557C8.59128 10.6793 10.3592 13.3459 13.0466 14.6011L13.893 12.789C11.8727 11.8454 10.6046 9.87227 10.6384 7.77783L8.63862 7.74557ZM16.0482 0.455078C12.0217 0.455078 8.70337 3.7196 8.63862 7.74562L10.6384 7.77778C10.6855 4.84394 13.1134 2.45508 16.0482 2.45508V0.455078ZM17.068 0.524179C16.7317 0.478816 16.3887 0.455078 16.0482 0.455078V2.45508C16.2967 2.45508 16.5503 2.47246 16.8008 2.50624L17.068 0.524179ZM17.0682 0.524202L17.068 0.524173L16.8008 2.50624L16.801 2.50627L17.0682 0.524202ZM23.373 6.72833C22.8856 3.50566 20.2978 0.96086 17.0686 0.524254L16.8006 2.50622C19.1503 2.82392 21.0411 4.684 21.3955 7.02739L23.373 6.72833ZM23.0936 10.1652C23.4582 9.052 23.5499 7.89051 23.3729 6.72738L21.3956 7.02833C21.5265 7.88796 21.4582 8.73287 21.1929 9.54271L23.0936 10.1652ZM23.4517 13.9344C22.8233 12.698 22.7164 11.3172 23.0936 10.1651L21.1929 9.54274C20.6385 11.2358 20.8174 13.1653 21.6687 14.8405L23.4517 13.9344ZM26.3417 16.5916C25.1766 16.1872 24.1319 15.2735 23.4517 13.9345L21.6686 14.8404C22.5569 16.5889 23.9796 17.8888 25.6859 18.4811L26.3417 16.5916ZM27.0544 16.88C26.8168 16.769 26.5758 16.6723 26.3394 16.5909L25.6882 18.4818C25.86 18.541 26.0358 18.6116 26.2078 18.692L27.0544 16.88ZM27.0532 16.8794L27.0529 16.8793L26.2092 18.6926L26.2095 18.6927L27.0532 16.8794ZM31.4616 23.7376C31.51 20.8034 29.7424 18.1371 27.0549 16.8802L26.2077 18.6919C28.2289 19.6372 29.4964 21.6103 29.4619 23.7046L31.4616 23.7376ZM24.052 31.0251C28.0773 31.0251 31.3967 27.7627 31.4616 23.7373L29.4619 23.705C29.4146 26.6374 26.9865 29.0251 24.052 29.0251V31.0251ZM23.0304 30.9557C23.3696 31.002 23.7131 31.0251 24.052 31.0251V29.0251C23.8031 29.0251 23.55 29.0081 23.3011 28.9741L23.0304 30.9557Z" fill="white" mask="url(#path-4-outside-1_2208_2707)"/>
<mask id="path-6-outside-2_2208_2707" maskUnits="userSpaceOnUse" x="24.6367" y="0.455078" width="23" height="31" fill="black">
<rect fill="white" x="24.6367" y="0.455078" width="23" height="31"/>
<path fill-rule="evenodd" clip-rule="evenodd" d="M34.3155 24.5123C34.1761 23.591 34.2492 22.6837 34.533 21.8165C35.0532 20.2292 34.8886 18.4077 34.0811 16.8183C33.2334 15.1499 31.8846 13.9253 30.2841 13.3708C30.0984 13.3064 29.911 13.2305 29.7259 13.1446C27.575 12.1399 26.2085 10.0308 26.245 7.7715C26.2956 4.62332 28.8982 2.06264 32.0472 2.06264C32.3137 2.06264 32.5849 2.08127 32.8522 2.11732C35.3746 2.45837 37.4023 4.453 37.7826 6.96912C37.9226 7.88836 37.8496 8.79545 37.5649 9.66487C37.0452 11.2518 37.2101 13.0737 38.0175 14.6627C38.8651 16.3311 40.2139 17.5553 41.8144 18.1106C41.9991 18.1742 42.1878 18.2499 42.373 18.3364C44.5247 19.3427 45.8905 21.4518 45.8533 23.7111C45.8026 26.8581 43.1996 29.4176 40.0511 29.4176C39.7843 29.4176 39.5134 29.3993 39.2466 29.3629C36.7242 29.0218 34.6968 27.0272 34.3155 24.5123ZM39.1644 29.9648C36.3752 29.5873 34.1365 27.3849 33.7148 24.6034L33.7147 24.6031C33.5615 23.5902 33.6416 22.587 33.9555 21.6276L33.9556 21.6273C34.422 20.2044 34.2793 18.5497 33.5395 17.0935C32.7548 15.5494 31.5209 14.4423 30.0852 13.9449C29.8795 13.8735 29.6731 13.7898 29.4703 13.6957L29.4688 13.6951C27.115 12.5956 25.5969 10.2758 25.6375 7.7617C25.6935 4.28177 28.5666 1.45508 32.0472 1.45508C32.3417 1.45508 32.64 1.47564 32.9334 1.51521L32.9336 1.51524C35.7231 1.89239 37.9624 4.09483 38.3833 6.87786C38.5372 7.88924 38.4572 8.89244 38.1423 9.85395C37.6765 11.2765 37.8194 12.9317 38.5592 14.3874C39.3434 15.9312 40.5771 17.038 42.0128 17.5364C42.2169 17.6066 42.4253 17.6903 42.6301 17.786L42.6303 17.7861C44.9847 18.8871 46.5022 21.2069 46.4608 23.7211C46.4047 27.2 43.5309 30.0251 40.0511 30.0251C39.7571 30.0251 39.4588 30.0051 39.1648 29.9649"/>
</mask>
<path fill-rule="evenodd" clip-rule="evenodd" d="M34.3155 24.5123C34.1761 23.591 34.2492 22.6837 34.533 21.8165C35.0532 20.2292 34.8886 18.4077 34.0811 16.8183C33.2334 15.1499 31.8846 13.9253 30.2841 13.3708C30.0984 13.3064 29.911 13.2305 29.7259 13.1446C27.575 12.1399 26.2085 10.0308 26.245 7.7715C26.2956 4.62332 28.8982 2.06264 32.0472 2.06264C32.3137 2.06264 32.5849 2.08127 32.8522 2.11732C35.3746 2.45837 37.4023 4.453 37.7826 6.96912C37.9226 7.88836 37.8496 8.79545 37.5649 9.66487C37.0452 11.2518 37.2101 13.0737 38.0175 14.6627C38.8651 16.3311 40.2139 17.5553 41.8144 18.1106C41.9991 18.1742 42.1878 18.2499 42.373 18.3364C44.5247 19.3427 45.8905 21.4518 45.8533 23.7111C45.8026 26.8581 43.1996 29.4176 40.0511 29.4176C39.7843 29.4176 39.5134 29.3993 39.2466 29.3629C36.7242 29.0218 34.6968 27.0272 34.3155 24.5123ZM39.1644 29.9648C36.3752 29.5873 34.1365 27.3849 33.7148 24.6034L33.7147 24.6031C33.5615 23.5902 33.6416 22.587 33.9555 21.6276L33.9556 21.6273C34.422 20.2044 34.2793 18.5497 33.5395 17.0935C32.7548 15.5494 31.5209 14.4423 30.0852 13.9449C29.8795 13.8735 29.6731 13.7898 29.4703 13.6957L29.4688 13.6951C27.115 12.5956 25.5969 10.2758 25.6375 7.7617C25.6935 4.28177 28.5666 1.45508 32.0472 1.45508C32.3417 1.45508 32.64 1.47564 32.9334 1.51521L32.9336 1.51524C35.7231 1.89239 37.9624 4.09483 38.3833 6.87786C38.5372 7.88924 38.4572 8.89244 38.1423 9.85395C37.6765 11.2765 37.8194 12.9317 38.5592 14.3874C39.3434 15.9312 40.5771 17.038 42.0128 17.5364C42.2169 17.6066 42.4253 17.6903 42.6301 17.786L42.6303 17.7861C44.9847 18.8871 46.5022 21.2069 46.4608 23.7211C46.4047 27.2 43.5309 30.0251 40.0511 30.0251C39.7571 30.0251 39.4588 30.0051 39.1648 29.9649" fill="white"/>
<path d="M39.2318 29.4694L39.2314 29.4693L39.0974 30.4603L39.0978 30.4604L39.2318 29.4694ZM34.3155 24.5123L33.3267 24.6618L33.3268 24.6622L34.3155 24.5123ZM34.533 21.8165L33.5827 21.5051L33.5825 21.5056L34.533 21.8165ZM34.0811 16.8183L34.9727 16.3654L34.9726 16.3653L34.0811 16.8183ZM30.2841 13.3708L29.9564 14.3156L29.9567 14.3157L30.2841 13.3708ZM29.7259 13.1446L29.3027 14.0506L29.3051 14.0517L29.7259 13.1446ZM26.245 7.7715L27.2449 7.78764L27.2449 7.78758L26.245 7.7715ZM32.8522 2.11732L32.9862 1.12634L32.9859 1.12629L32.8522 2.11732ZM37.7826 6.96912L36.7938 7.11858L36.794 7.11962L37.7826 6.96912ZM37.5649 9.66487L36.6146 9.35363L36.6146 9.35367L37.5649 9.66487ZM38.0175 14.6627L38.9091 14.2098L38.909 14.2097L38.0175 14.6627ZM41.8144 18.1106L41.4866 19.0554L41.4889 19.0561L41.8144 18.1106ZM42.373 18.3364L42.7966 17.4306L42.7962 17.4304L42.373 18.3364ZM45.8533 23.7111L44.8534 23.6946L44.8534 23.695L45.8533 23.7111ZM39.2466 29.3629L39.382 28.3721L39.3806 28.3719L39.2466 29.3629ZM33.7148 24.6034L32.726 24.7527L32.7261 24.7533L33.7148 24.6034ZM33.7147 24.6031L34.7035 24.4538L34.7035 24.4536L33.7147 24.6031ZM33.9555 21.6276L34.9059 21.9386L34.9068 21.9358L33.9555 21.6276ZM33.9556 21.6273L33.0054 21.3158L33.0043 21.3191L33.9556 21.6273ZM33.5395 17.0935L34.431 16.6406L34.431 16.6405L33.5395 17.0935ZM30.0852 13.9449L29.7575 14.8897L29.7578 14.8898L30.0852 13.9449ZM29.4703 13.6957L29.8911 12.7886L29.8911 12.7886L29.4703 13.6957ZM29.4688 13.6951L29.0456 14.6011L29.048 14.6022L29.4688 13.6951ZM25.6375 7.7617L26.6374 7.77783L26.6374 7.77778L25.6375 7.7617ZM32.9334 1.51521L32.7998 2.50624L32.7998 2.50624L32.9334 1.51521ZM32.9336 1.51524L33.0676 0.524254L33.0672 0.524202L32.9336 1.51524ZM38.3833 6.87786L37.3945 7.02739L37.3947 7.02833L38.3833 6.87786ZM38.1423 9.85395L37.192 9.54271L37.192 9.54274L38.1423 9.85395ZM38.5592 14.3874L39.4507 13.9345L39.4507 13.9344L38.5592 14.3874ZM42.0128 17.5364L41.6849 18.4811L41.6872 18.4818L42.0128 17.5364ZM42.6301 17.786L42.2069 18.692L42.2083 18.6926L42.6301 17.786ZM42.6303 17.7861L43.054 16.8802L43.0522 16.8794L42.6303 17.7861ZM46.4608 23.7211L45.4609 23.7046L45.4609 23.705L46.4608 23.7211ZM35.3042 24.3627C35.1877 23.5924 35.2493 22.843 35.4834 22.1275L33.5825 21.5056C33.2492 22.5245 33.1645 23.5897 33.3267 24.6618L35.3042 24.3627ZM35.4832 22.128C36.0922 20.27 35.8915 18.174 34.9727 16.3654L33.1896 17.2712C33.8857 18.6414 34.0143 20.1884 33.5827 21.5051L35.4832 22.128ZM34.9726 16.3653C34.021 14.4925 32.4832 13.0744 30.6114 12.4259L29.9567 14.3157C31.286 14.7762 32.4457 15.8074 33.1896 17.2713L34.9726 16.3653ZM30.6117 12.426C30.4589 12.373 30.3027 12.3098 30.1467 12.2374L29.3051 14.0517C29.5194 14.1511 29.7378 14.2398 29.9564 14.3156L30.6117 12.426ZM30.1491 12.2386C28.332 11.3898 27.2152 9.62763 27.2449 7.78764L25.2451 7.75537C25.2019 10.434 26.8179 12.89 29.3027 14.0506L30.1491 12.2386ZM27.2449 7.78758C27.2867 5.18548 29.4441 3.06264 32.0472 3.06264V1.06264C28.3523 1.06264 25.3045 4.06115 25.2451 7.75542L27.2449 7.78758ZM32.0472 3.06264C32.2677 3.06264 32.4942 3.0781 32.7186 3.10835L32.9859 1.12629C32.6756 1.08445 32.3598 1.06264 32.0472 1.06264V3.06264ZM32.7183 3.1083C34.8009 3.38989 36.48 5.04212 36.7938 7.11858L38.7714 6.81965C38.3246 3.86387 35.9484 1.52684 32.9862 1.12634L32.7183 3.1083ZM36.794 7.11962C36.9108 7.8871 36.8496 8.63589 36.6146 9.35363L38.5152 9.97611C38.8497 8.95501 38.9343 7.88962 38.7712 6.81861L36.794 7.11962ZM36.6146 9.35367C36.0063 11.2112 36.2072 13.3075 37.126 15.1157L38.909 14.2097C38.213 12.8399 38.0842 11.2924 38.5152 9.97607L36.6146 9.35367ZM37.126 15.1156C38.0775 16.9886 39.6153 18.4061 41.4866 19.0554L42.1422 17.1659C40.8124 16.7045 39.6527 15.6735 38.9091 14.2098L37.126 15.1156ZM41.4889 19.0561C41.6413 19.1086 41.7974 19.1713 41.9497 19.2424L42.7962 17.4304C42.5783 17.3286 42.3569 17.2398 42.1399 17.1651L41.4889 19.0561ZM41.9493 19.2422C43.7677 20.0926 44.8838 21.8549 44.8534 23.6946L46.8531 23.7276C46.8973 21.0487 45.2818 18.5928 42.7966 17.4306L41.9493 19.2422ZM44.8534 23.695C44.8116 26.2955 42.6542 28.4176 40.0511 28.4176V30.4176C43.7451 30.4176 46.7937 27.4207 46.8531 23.7272L44.8534 23.695ZM40.0511 28.4176C39.8293 28.4176 39.6036 28.4024 39.382 28.3721L39.1112 30.3537C39.4231 30.3963 39.7393 30.4176 40.0511 30.4176V28.4176ZM39.3806 28.3719C37.298 28.0903 35.6189 26.438 35.3042 24.3624L33.3268 24.6622C33.7747 27.6164 36.1505 29.9533 39.1126 30.3539L39.3806 28.3719ZM32.7261 24.7533C33.2144 27.9741 35.8014 30.5188 39.0302 30.9558L39.2985 28.9739C36.949 28.6559 35.0586 26.7957 34.7035 24.4535L32.7261 24.7533ZM32.7259 24.7525L32.726 24.7527L34.7035 24.4541L34.7035 24.4538L32.7259 24.7525ZM33.0051 21.3166C32.6416 22.4278 32.5499 23.5889 32.726 24.7527L34.7035 24.4536C34.5731 23.5915 34.6417 22.7462 34.9059 21.9386L33.0051 21.3166ZM33.0043 21.3191L33.0042 21.3194L34.9068 21.9358L34.9069 21.9355L33.0043 21.3191ZM32.6479 17.5465C33.2763 18.7833 33.383 20.1635 33.0054 21.3158L34.9059 21.9388C35.4609 20.2453 35.2822 18.3161 34.431 16.6406L32.6479 17.5465ZM29.7578 14.8898C30.9224 15.2933 31.9673 16.2069 32.648 17.5466L34.431 16.6405C33.5424 14.8918 32.1194 13.5913 30.4125 13L29.7578 14.8898ZM29.0494 14.6029C29.2815 14.7105 29.5189 14.8069 29.7575 14.8897L30.4128 13.0001C30.24 12.9402 30.0647 12.8691 29.8911 12.7886L29.0494 14.6029ZM29.048 14.6022L29.0494 14.6029L29.8911 12.7886L29.8896 12.7879L29.048 14.6022ZM24.6376 7.74557C24.5903 10.6793 26.3583 13.3459 29.0456 14.6011L29.892 12.789C27.8717 11.8454 26.6036 9.87227 26.6374 7.77783L24.6376 7.74557ZM32.0472 0.455078C28.0207 0.455078 24.7024 3.7196 24.6376 7.74562L26.6374 7.77778C26.6846 4.84394 29.1124 2.45508 32.0472 2.45508V0.455078ZM33.0671 0.524179C32.7307 0.478816 32.3877 0.455078 32.0472 0.455078V2.45508C32.2957 2.45508 32.5493 2.47246 32.7998 2.50624L33.0671 0.524179ZM33.0672 0.524202L33.067 0.524173L32.7998 2.50624L32.8 2.50627L33.0672 0.524202ZM39.372 6.72833C38.8847 3.50566 36.2968 0.96086 33.0676 0.524254L32.7997 2.50622C35.1494 2.82392 37.0401 4.684 37.3945 7.02739L39.372 6.72833ZM39.0926 10.1652C39.4572 9.052 39.5489 7.89051 39.3719 6.72738L37.3947 7.02833C37.5255 7.88796 37.4572 8.73287 37.192 9.54271L39.0926 10.1652ZM39.4507 13.9344C38.8224 12.698 38.7154 11.3172 39.0926 10.1651L37.192 9.54274C36.6375 11.2358 36.8165 13.1653 37.6677 14.8405L39.4507 13.9344ZM42.3407 16.5916C41.1756 16.1872 40.131 15.2735 39.4507 13.9345L37.6676 14.8404C38.5559 16.5889 39.9786 17.8888 41.6849 18.4811L42.3407 16.5916ZM43.0534 16.88C42.8158 16.769 42.5748 16.6723 42.3385 16.5909L41.6872 18.4818C41.859 18.541 42.0348 18.6116 42.2069 18.692L43.0534 16.88ZM43.0522 16.8794L43.052 16.8793L42.2083 18.6926L42.2085 18.6927L43.0522 16.8794ZM47.4606 23.7376C47.509 20.8034 45.7415 18.1371 43.054 16.8802L42.2067 18.6919C44.228 19.6372 45.4954 21.6103 45.4609 23.7046L47.4606 23.7376ZM40.0511 31.0251C44.0763 31.0251 47.3957 27.7627 47.4606 23.7373L45.4609 23.705C45.4136 26.6374 42.9855 29.0251 40.0511 29.0251V31.0251ZM39.0295 30.9557C39.3686 31.002 39.7122 31.0251 40.0511 31.0251V29.0251C39.8021 29.0251 39.549 29.0081 39.3001 28.9741L39.0295 30.9557Z" fill="white" mask="url(#path-6-outside-2_2208_2707)"/>
<path d="M118.213 25.3163C116.683 25.3163 115.337 24.9936 114.175 24.3483C113.032 23.7029 112.138 22.7994 111.492 21.6378C110.865 20.4761 110.552 19.1301 110.552 17.5996C110.552 16.1061 110.874 14.7877 111.52 13.6445C112.184 12.4829 113.087 11.5701 114.23 10.9063C115.392 10.2425 116.71 9.91064 118.185 9.91064C119.421 9.91064 120.536 10.1411 121.532 10.6021C122.528 11.0631 123.358 11.7084 124.021 12.5382C124.704 13.3495 125.183 14.2991 125.46 15.387C125.736 16.4564 125.764 17.5996 125.543 18.8166H113.401V15.8572H120.481C120.463 15.1012 120.232 14.5019 119.79 14.0594C119.347 13.6169 118.775 13.3956 118.075 13.3956C117.466 13.3956 116.959 13.5523 116.554 13.8658C116.166 14.1608 115.871 14.6218 115.669 15.2487C115.466 15.8756 115.364 16.6685 115.364 17.6273C115.364 18.5124 115.466 19.2591 115.669 19.8676C115.871 20.4577 116.176 20.9002 116.581 21.1952C116.987 21.4902 117.494 21.6378 118.102 21.6378C118.766 21.6378 119.319 21.4995 119.762 21.2229C120.205 20.9463 120.527 20.5406 120.73 20.0059H125.46C124.999 21.7023 124.141 23.0115 122.887 23.9334C121.634 24.8553 120.075 25.3163 118.213 25.3163Z" fill="white"/>
<path d="M111.164 10.1873L105.826 25.0674H100.571L95.1777 10.1873H100.322L103.309 19.7017L106.352 10.1873H111.164Z" fill="white"/>
<path d="M88.0171 25.344C86.9108 25.344 85.8874 25.1504 84.947 24.7631C84.0066 24.3575 83.1861 23.8043 82.4854 23.1036C81.7848 22.3845 81.2316 21.564 80.8259 20.6421C80.4387 19.7017 80.2451 18.6968 80.2451 17.6273C80.2451 16.5579 80.4387 15.5622 80.8259 14.6402C81.2316 13.6998 81.7848 12.8793 82.4854 12.1786C83.1861 11.4595 84.0066 10.9063 84.947 10.5191C85.8874 10.1135 86.9108 9.91064 88.0171 9.91064C89.1234 9.91064 90.1468 10.1135 91.0872 10.5191C92.0275 10.9063 92.8481 11.4595 93.5488 12.1786C94.2494 12.8793 94.7934 13.6998 95.1806 14.6402C95.5862 15.5622 95.7891 16.5579 95.7891 17.6273C95.7891 18.6968 95.5862 19.7017 95.1806 20.6421C94.7934 21.564 94.2494 22.3845 93.5488 23.1036C92.8481 23.8043 92.0275 24.3575 91.0872 24.7631C90.1468 25.1504 89.1234 25.344 88.0171 25.344ZM88.0171 21.1122C88.5149 21.1122 88.9759 20.9832 89.4 20.725C89.8425 20.4669 90.1929 20.0797 90.451 19.5634C90.7276 19.0471 90.8659 18.4017 90.8659 17.6273C90.8659 16.8529 90.7276 16.2075 90.451 15.6912C90.1929 15.1749 89.8425 14.7969 89.4 14.5572C88.9759 14.2991 88.5149 14.17 88.0171 14.17C87.5377 14.17 87.0767 14.2991 86.6342 14.5572C86.1916 14.7969 85.8321 15.1749 85.5555 15.6912C85.2974 16.2075 85.1683 16.8529 85.1683 17.6273C85.1683 18.4017 85.2974 19.0471 85.5555 19.5634C85.8321 20.0797 86.1916 20.4669 86.6342 20.725C87.0767 20.9832 87.5377 21.1122 88.0171 21.1122Z" fill="white"/>
<path d="M60.8624 25.0674H56.1328V10.1872H60.4752V12.0127C61.0468 11.3489 61.6645 10.8326 62.3283 10.4638C62.9921 10.095 63.8034 9.91064 64.7622 9.91064C65.7026 9.91064 66.5323 10.1043 67.2514 10.4915C67.989 10.8787 68.5606 11.4503 68.9663 12.2063C69.6116 11.4872 70.2939 10.9248 71.013 10.5191C71.7505 10.1135 72.6632 9.91064 73.7511 9.91064C75.2262 9.91064 76.434 10.3901 77.3744 11.3489C78.3148 12.3077 78.7849 13.6906 78.7849 15.4976V25.0674H74.0554V16.9635C74.0554 16.0969 73.8802 15.4146 73.5299 14.9168C73.198 14.4189 72.6909 14.17 72.0087 14.17C71.6214 14.17 71.2619 14.2714 70.93 14.4743C70.5981 14.6586 70.3307 14.9629 70.1279 15.387C69.9251 15.7926 69.8237 16.3274 69.8237 16.9912V25.0674H65.0941V16.9635C65.0941 16.0969 64.9189 15.4146 64.5686 14.9168C64.2367 14.4189 63.7296 14.17 63.0474 14.17C62.6417 14.17 62.273 14.2714 61.9411 14.4743C61.6092 14.6586 61.3418 14.9629 61.139 15.387C60.9546 15.7926 60.8624 16.3274 60.8624 16.9912V25.0674Z" fill="white"/>
<g filter="url(#filter0_b_2208_2707)">
<path d="M210.508 18.1642V25.0425H205.766V10.121H210.12V12.7558C210.693 11.8868 211.516 11.2119 212.589 10.7311C213.679 10.2504 214.817 10.01 216 10.01V14.9469C214.891 14.8359 213.92 14.8267 213.088 14.9192C212.274 14.9931 211.636 15.2797 211.174 15.7789C210.73 16.2597 210.508 17.0548 210.508 18.1642Z" fill="white"/>
</g>
<g filter="url(#filter1_b_2208_2707)">
<path d="M196.951 25.2923C195.417 25.2923 194.067 24.9687 192.902 24.3216C191.755 23.6744 190.859 22.7684 190.212 21.6035C189.583 20.4386 189.269 19.0888 189.269 17.5542C189.269 16.0565 189.592 14.7344 190.239 13.588C190.905 12.4231 191.811 11.5079 192.957 10.8422C194.122 10.1766 195.444 9.84375 196.923 9.84375C198.162 9.84375 199.281 10.0749 200.279 10.5371C201.278 10.9994 202.11 11.6465 202.776 12.4786C203.46 13.2922 203.941 14.2444 204.218 15.3353C204.495 16.4078 204.523 17.5542 204.301 18.7745H192.125V15.8068H199.226C199.207 15.0487 198.976 14.4478 198.532 14.004C198.088 13.5603 197.515 13.3384 196.813 13.3384C196.202 13.3384 195.694 13.4956 195.287 13.8099C194.899 14.1057 194.603 14.568 194.4 15.1967C194.196 15.8253 194.094 16.6204 194.094 17.5819C194.094 18.4694 194.196 19.2183 194.4 19.8285C194.603 20.4201 194.908 20.8639 195.315 21.1597C195.722 21.4556 196.23 21.6035 196.84 21.6035C197.506 21.6035 198.061 21.4648 198.504 21.1875C198.948 20.9101 199.272 20.5033 199.475 19.9671H204.218C203.756 21.6682 202.896 22.981 201.638 23.9055C200.381 24.83 198.819 25.2923 196.951 25.2923Z" fill="white"/>
</g>
<g filter="url(#filter2_b_2208_2707)">
<path d="M189.084 20.383V24.5156C188.566 24.8114 188.039 25.0148 187.503 25.1257C186.967 25.2552 186.366 25.3199 185.7 25.3199C184.591 25.3199 183.639 25.1072 182.844 24.682C182.048 24.2567 181.438 23.6373 181.013 22.8237C180.588 22.0101 180.375 21.0394 180.375 19.9115V14.2535H177.602V10.1209H180.375V5.73877H185.118V10.1209H189.195V14.2535H185.118V18.8021C185.118 19.5232 185.275 20.0594 185.589 20.4107C185.904 20.7436 186.384 20.91 187.032 20.91C187.42 20.91 187.79 20.8637 188.141 20.7713C188.511 20.6788 188.825 20.5494 189.084 20.383Z" fill="white"/>
</g>
<g filter="url(#filter3_b_2208_2707)">
<path d="M167.989 17.1936V25.0427H163.246V10.1211H167.601V11.9239C168.192 11.2767 168.839 10.7683 169.542 10.3985C170.263 10.0287 171.095 9.84375 172.038 9.84375C173.517 9.84375 174.719 10.3245 175.644 11.286C176.587 12.2475 177.058 13.6342 177.058 15.4463V25.0427H172.316V17.0272C172.316 16.0842 172.14 15.3631 171.789 14.8638C171.456 14.3646 170.929 14.115 170.208 14.115C169.819 14.115 169.45 14.2167 169.098 14.4201C168.765 14.6235 168.497 14.947 168.294 15.3908C168.091 15.8346 167.989 16.4355 167.989 17.1936Z" fill="white"/>
</g>
<g filter="url(#filter4_b_2208_2707)">
<path d="M154.432 25.2923C152.897 25.2923 151.547 24.9687 150.382 24.3216C149.236 23.6744 148.339 22.7684 147.692 21.6035C147.063 20.4386 146.749 19.0888 146.749 17.5542C146.749 16.0565 147.073 14.7344 147.72 13.588C148.385 12.4231 149.291 11.5079 150.438 10.8422C151.603 10.1766 152.925 9.84375 154.404 9.84375C155.643 9.84375 156.761 10.0749 157.76 10.5371C158.758 10.9994 159.59 11.6465 160.256 12.4786C160.94 13.2922 161.421 14.2444 161.698 15.3353C161.976 16.4078 162.003 17.5542 161.782 18.7745H149.606V15.8068H156.706C156.687 15.0487 156.456 14.4478 156.013 14.004C155.569 13.5603 154.996 13.3384 154.293 13.3384C153.683 13.3384 153.174 13.4956 152.768 13.8099C152.379 14.1057 152.083 14.568 151.88 15.1967C151.677 15.8253 151.575 16.6204 151.575 17.5819C151.575 18.4694 151.677 19.2183 151.88 19.8285C152.083 20.4201 152.389 20.8639 152.795 21.1597C153.202 21.4556 153.711 21.6035 154.321 21.6035C154.986 21.6035 155.541 21.4648 155.985 21.1875C156.429 20.9101 156.752 20.5033 156.956 19.9671H161.698C161.236 21.6682 160.376 22.981 159.119 23.9055C157.862 24.83 156.299 25.2923 154.432 25.2923Z" fill="white"/>
</g>
<g filter="url(#filter5_b_2208_2707)">
<path d="M138.792 25.32C137.312 25.32 136.009 24.9965 134.881 24.3493C133.753 23.6837 132.866 22.7684 132.218 21.6035C131.59 20.4386 131.275 19.0981 131.275 17.5819C131.275 16.1027 131.599 14.7806 132.246 13.6157C132.912 12.4509 133.809 11.5356 134.936 10.87C136.083 10.1858 137.368 9.84375 138.792 9.84375C140.16 9.84375 141.39 10.1396 142.48 10.7313C143.571 11.3045 144.459 12.1088 145.143 13.1442C145.827 14.1797 146.234 15.3908 146.363 16.7776H141.316C141.279 15.964 141.029 15.3168 140.567 14.8361C140.123 14.3554 139.541 14.115 138.819 14.115C138.265 14.115 137.793 14.2537 137.405 14.531C137.017 14.8084 136.712 15.2059 136.49 15.7236C136.286 16.2229 136.185 16.8423 136.185 17.5819C136.185 18.3215 136.286 18.9594 136.49 19.4956C136.693 20.0134 136.989 20.4109 137.377 20.6882C137.784 20.9471 138.265 21.0765 138.819 21.0765C139.559 21.0765 140.141 20.8454 140.567 20.3832C141.01 19.9024 141.26 19.2368 141.316 18.3862H146.363C146.234 19.81 145.836 21.0396 145.171 22.075C144.505 23.1105 143.627 23.9148 142.536 24.488C141.463 25.0427 140.215 25.32 138.792 25.32Z" fill="white"/>
</g>
<defs>
<filter id="filter0_b_2208_2707" x="197.405" y="1.64958" width="26.9552" height="31.7533" filterUnits="userSpaceOnUse" color-interpolation-filters="sRGB">
<feFlood flood-opacity="0" result="BackgroundImageFix"/>
<feGaussianBlur in="BackgroundImageFix" stdDeviation="4.18022"/>
<feComposite in2="SourceAlpha" operator="in" result="effect1_backgroundBlur_2208_2707"/>
<feBlend mode="normal" in="SourceGraphic" in2="effect1_backgroundBlur_2208_2707" result="shape"/>
</filter>
<filter id="filter1_b_2208_2707" x="180.908" y="1.48332" width="31.9015" height="32.1694" filterUnits="userSpaceOnUse" color-interpolation-filters="sRGB">
<feFlood flood-opacity="0" result="BackgroundImageFix"/>
<feGaussianBlur in="BackgroundImageFix" stdDeviation="4.18022"/>
<feComposite in2="SourceAlpha" operator="in" result="effect1_backgroundBlur_2208_2707"/>
<feBlend mode="normal" in="SourceGraphic" in2="effect1_backgroundBlur_2208_2707" result="shape"/>
</filter>
<filter id="filter2_b_2208_2707" x="169.241" y="-2.62167" width="28.3146" height="36.3019" filterUnits="userSpaceOnUse" color-interpolation-filters="sRGB">
<feFlood flood-opacity="0" result="BackgroundImageFix"/>
<feGaussianBlur in="BackgroundImageFix" stdDeviation="4.18022"/>
<feComposite in2="SourceAlpha" operator="in" result="effect1_backgroundBlur_2208_2707"/>
<feBlend mode="normal" in="SourceGraphic" in2="effect1_backgroundBlur_2208_2707" result="shape"/>
</filter>
<filter id="filter3_b_2208_2707" x="154.886" y="1.48332" width="30.5334" height="31.9198" filterUnits="userSpaceOnUse" color-interpolation-filters="sRGB">
<feFlood flood-opacity="0" result="BackgroundImageFix"/>
<feGaussianBlur in="BackgroundImageFix" stdDeviation="4.18022"/>
<feComposite in2="SourceAlpha" operator="in" result="effect1_backgroundBlur_2208_2707"/>
<feBlend mode="normal" in="SourceGraphic" in2="effect1_backgroundBlur_2208_2707" result="shape"/>
</filter>
<filter id="filter4_b_2208_2707" x="138.389" y="1.48332" width="31.9015" height="32.1694" filterUnits="userSpaceOnUse" color-interpolation-filters="sRGB">
<feFlood flood-opacity="0" result="BackgroundImageFix"/>
<feGaussianBlur in="BackgroundImageFix" stdDeviation="4.18022"/>
<feComposite in2="SourceAlpha" operator="in" result="effect1_backgroundBlur_2208_2707"/>
<feBlend mode="normal" in="SourceGraphic" in2="effect1_backgroundBlur_2208_2707" result="shape"/>
</filter>
<filter id="filter5_b_2208_2707" x="122.915" y="1.48332" width="31.8088" height="32.1972" filterUnits="userSpaceOnUse" color-interpolation-filters="sRGB">
<feFlood flood-opacity="0" result="BackgroundImageFix"/>
<feGaussianBlur in="BackgroundImageFix" stdDeviation="4.18022"/>
<feComposite in2="SourceAlpha" operator="in" result="effect1_backgroundBlur_2208_2707"/>
<feBlend mode="normal" in="SourceGraphic" in2="effect1_backgroundBlur_2208_2707" result="shape"/>
</filter>
</defs>
</svg>
