<svg width="912" height="194" viewBox="0 0 912 194" fill="none" xmlns="http://www.w3.org/2000/svg">
<g filter="url(#filter0_b_2208_2702)">
<path d="M59.665 190H0.643962V4.30802H54.8329V27.0881C61.966 18.8044 69.6744 12.3616 77.9581 7.75956C86.2417 3.15752 96.3662 0.856503 108.332 0.856503C120.067 0.856503 130.421 3.27257 139.395 8.10471C148.599 12.9368 155.732 20.07 160.795 29.5041C168.848 20.5302 177.362 13.5121 186.336 8.44986C195.54 3.38762 206.93 0.856503 220.506 0.856503C238.914 0.856503 253.986 6.83915 265.721 18.8044C277.456 30.7697 283.324 48.0273 283.324 70.5773V190H224.303V88.8704C224.303 78.0556 222.117 69.5418 217.745 63.3291C213.603 57.1163 207.275 54.01 198.761 54.01C193.929 54.01 189.442 55.2755 185.3 57.8066C181.159 60.1077 177.822 63.9043 175.291 69.1967C172.76 74.2589 171.494 80.9319 171.494 89.2155V190H112.473V88.8704C112.473 78.0556 110.287 69.5418 105.915 63.3291C101.774 57.1163 95.4458 54.01 86.9321 54.01C81.8698 54.01 77.2678 55.2755 73.126 57.8066C68.9841 60.1077 65.6477 63.9043 63.1165 69.1967C60.8155 74.2589 59.665 80.9319 59.665 89.2155V190ZM395.078 193.452C381.271 193.452 368.501 191.035 356.766 186.203C345.031 181.141 334.791 174.238 326.047 165.494C317.303 156.52 310.4 146.281 305.338 134.776C300.506 123.04 298.09 110.5 298.09 97.154C298.09 83.8081 300.506 71.3826 305.338 59.8776C310.4 48.1424 317.303 37.9029 326.047 29.159C334.791 20.185 345.031 13.282 356.766 8.44986C368.501 3.38762 381.271 0.856503 395.078 0.856503C408.884 0.856503 421.654 3.38762 433.39 8.44986C445.125 13.282 455.364 20.185 464.108 29.159C472.852 37.9029 479.64 48.1424 484.472 59.8776C489.534 71.3826 492.065 83.8081 492.065 97.154C492.065 110.5 489.534 123.04 484.472 134.776C479.64 146.281 472.852 156.52 464.108 165.494C455.364 174.238 445.125 181.141 433.39 186.203C421.654 191.035 408.884 193.452 395.078 193.452ZM395.078 140.643C401.29 140.643 407.043 139.033 412.335 135.811C417.858 132.59 422.23 127.758 425.451 121.315C428.903 114.872 430.628 106.818 430.628 97.154C430.628 87.4897 428.903 79.4362 425.451 72.9933C422.23 66.5505 417.858 61.8334 412.335 58.8421C407.043 55.6207 401.29 54.01 395.078 54.01C389.095 54.01 383.342 55.6207 377.82 58.8421C372.298 61.8334 367.811 66.5505 364.359 72.9933C361.138 79.4362 359.527 87.4897 359.527 97.154C359.527 106.818 361.138 114.872 364.359 121.315C367.811 127.758 372.298 132.59 377.82 135.811C383.342 139.033 389.095 140.643 395.078 140.643ZM680.489 4.30802L613.875 190H548.296L480.991 4.30802H545.189L582.466 123.04L620.432 4.30802H680.489ZM764.992 193.106C745.894 193.106 729.096 189.08 714.6 181.026C700.333 172.972 689.173 161.698 681.12 147.201C673.296 132.705 669.385 115.907 669.385 96.8089C669.385 78.1706 673.412 61.7184 681.465 47.4521C689.749 32.9557 701.024 21.5657 715.29 13.282C729.786 4.99833 746.239 0.856503 764.647 0.856503C780.064 0.856503 793.985 3.73278 806.41 9.48532C818.836 15.2379 829.19 23.2914 837.474 33.646C845.988 43.7705 851.97 55.6207 855.422 69.1967C858.873 82.5426 859.219 96.8089 856.457 111.996H704.935V75.0643H793.294C793.064 65.6301 790.188 58.1518 784.666 52.6294C779.143 47.1069 772.01 44.3457 763.266 44.3457C755.673 44.3457 749.345 46.3016 744.283 50.2133C739.451 53.8949 735.769 59.6475 733.238 67.4709C730.707 75.2944 729.441 85.1887 729.441 97.154C729.441 108.199 730.707 117.518 733.238 125.111C735.769 132.475 739.566 137.997 744.628 141.679C749.69 145.36 756.018 147.201 763.611 147.201C771.895 147.201 778.798 145.475 784.32 142.024C789.843 138.572 793.87 133.51 796.401 126.837H855.422C849.669 148.006 838.97 164.344 823.323 175.849C807.676 187.354 788.232 193.106 764.992 193.106Z" fill="white"/>
<path d="M911.066 165.961C911.066 173.357 908.755 179.444 904.132 184.221C899.509 188.844 893.499 191.156 886.102 191.156C878.706 191.156 872.619 188.844 867.842 184.221C863.219 179.444 860.907 173.357 860.907 165.961C860.907 158.41 863.219 152.323 867.842 147.7C872.619 142.923 878.706 140.535 886.102 140.535C893.499 140.535 899.509 142.923 904.132 147.7C908.755 152.323 911.066 158.41 911.066 165.961Z" fill="#1347FF"/>
</g>
<defs>
<filter id="filter0_b_2208_2702" x="-69.702" y="-69.4891" width="1051.11" height="333.286" filterUnits="userSpaceOnUse" color-interpolation-filters="sRGB">
<feFlood flood-opacity="0" result="BackgroundImageFix"/>
<feGaussianBlur in="BackgroundImageFix" stdDeviation="35.1728"/>
<feComposite in2="SourceAlpha" operator="in" result="effect1_backgroundBlur_2208_2702"/>
<feBlend mode="normal" in="SourceGraphic" in2="effect1_backgroundBlur_2208_2702" result="shape"/>
</filter>
</defs>
</svg>
