<svg width="54" height="54" viewBox="0 0 54 54" fill="none" xmlns="http://www.w3.org/2000/svg">
<rect x="0.5" y="0.5" width="53" height="53" rx="26.5" fill="#16A249"/>
<rect x="0.5" y="0.5" width="53" height="53" rx="26.5" stroke="#36D570"/>
<path d="M30.7188 28.125L34.2188 29.625C34.7812 29.8438 35.0938 30.4375 34.9688 31.0312L34.2188 34.5312C34.0938 35.0938 33.5625 35.5312 33 35.5312C32.7812 35.5312 32.5938 35.5 32.4062 35.5C32.0938 35.5 31.7812 35.4688 31.5 35.4375C24.4688 34.6875 19 28.75 19 21.5C19 20.9375 19.4062 20.4062 19.9688 20.2812L23.4688 19.5312C24.0625 19.4062 24.6562 19.7188 24.875 20.2812L26.375 23.7812C26.5938 24.2812 26.4688 24.875 26.0312 25.2188L24.75 26.2812C25.5938 27.7188 26.7812 28.9062 28.2188 29.75L29.2812 28.4688C29.625 28.0312 30.2188 27.9062 30.7188 28.125ZM32.7812 34L33.4375 30.9062L30.3125 29.5625L29.4062 30.6875C28.9375 31.25 28.125 31.4062 27.4688 31.0312C25.8125 30.0625 24.4375 28.6875 23.4688 27.0312C23.0938 26.375 23.25 25.5625 23.8125 25.0938L24.9375 24.1875L23.5938 21.0625L20.5 21.7188C20.5938 28.4688 26.0312 33.9062 32.7812 34Z" fill="white"/>
</svg>
